<mxfile host="Electron" agent="Mozilla/5.0 (Windows NT 10.0; Win64; x64) AppleWebKit/537.36 (KHTML, like Gecko) draw.io/24.7.8 Chrome/128.0.6613.36 Electron/32.0.1 Safari/537.36" version="24.7.8">
  <diagram name="15_Sort_Dic_in_ASC_DESC_By_value" id="um-eqXtD8uhHemR4fNU5">
    <mxGraphModel dx="1727" dy="1010" grid="1" gridSize="10" guides="1" tooltips="1" connect="1" arrows="1" fold="1" page="1" pageScale="1" pageWidth="850" pageHeight="1100" math="0" shadow="0">
      <root>
        <mxCell id="0" />
        <mxCell id="1" parent="0" />
        <mxCell id="GQEL2rc2uJzD6zCsfo1W-2" value="Define dictionary &#39;released&#39;" style="whiteSpace=wrap;strokeWidth=2;" vertex="1" parent="1">
          <mxGeometry x="736" y="357" width="209" height="33" as="geometry" />
        </mxCell>
        <mxCell id="GQEL2rc2uJzD6zCsfo1W-3" value="Use sorted() with lambda to sort by values (ascending)" style="whiteSpace=wrap;strokeWidth=2;" vertex="1" parent="1">
          <mxGeometry x="649" y="441" width="383" height="33" as="geometry" />
        </mxCell>
        <mxCell id="GQEL2rc2uJzD6zCsfo1W-4" value="Iterate through sorted list" style="whiteSpace=wrap;strokeWidth=2;" vertex="1" parent="1">
          <mxGeometry x="740" y="524" width="202" height="33" as="geometry" />
        </mxCell>
        <mxCell id="GQEL2rc2uJzD6zCsfo1W-5" value="Print key and value" style="whiteSpace=wrap;strokeWidth=2;" vertex="1" parent="1">
          <mxGeometry x="764" y="608" width="153" height="33" as="geometry" />
        </mxCell>
        <mxCell id="GQEL2rc2uJzD6zCsfo1W-6" value="Use sorted() with reverse=True for descending" style="whiteSpace=wrap;strokeWidth=2;" vertex="1" parent="1">
          <mxGeometry x="673" y="691" width="335" height="33" as="geometry" />
        </mxCell>
        <mxCell id="GQEL2rc2uJzD6zCsfo1W-7" value="Iterate and print key and value" style="whiteSpace=wrap;strokeWidth=2;" vertex="1" parent="1">
          <mxGeometry x="721" y="774" width="238" height="33" as="geometry" />
        </mxCell>
        <mxCell id="GQEL2rc2uJzD6zCsfo1W-9" value="" style="curved=1;startArrow=none;endArrow=block;exitX=0.49;exitY=1.01;entryX=0.5;entryY=0.01;rounded=0;" edge="1" parent="1" target="GQEL2rc2uJzD6zCsfo1W-2">
          <mxGeometry relative="1" as="geometry">
            <Array as="points" />
            <mxPoint x="840.5098039215686" y="307" as="sourcePoint" />
          </mxGeometry>
        </mxCell>
        <mxCell id="GQEL2rc2uJzD6zCsfo1W-10" value="" style="curved=1;startArrow=none;endArrow=block;exitX=0.5;exitY=1.02;entryX=0.5;entryY=-0.01;rounded=0;" edge="1" parent="1" source="GQEL2rc2uJzD6zCsfo1W-2" target="GQEL2rc2uJzD6zCsfo1W-3">
          <mxGeometry relative="1" as="geometry">
            <Array as="points" />
          </mxGeometry>
        </mxCell>
        <mxCell id="GQEL2rc2uJzD6zCsfo1W-11" value="" style="curved=1;startArrow=none;endArrow=block;exitX=0.5;exitY=1.01;entryX=0.5;entryY=0.01;rounded=0;" edge="1" parent="1" source="GQEL2rc2uJzD6zCsfo1W-3" target="GQEL2rc2uJzD6zCsfo1W-4">
          <mxGeometry relative="1" as="geometry">
            <Array as="points" />
          </mxGeometry>
        </mxCell>
        <mxCell id="GQEL2rc2uJzD6zCsfo1W-12" value="" style="curved=1;startArrow=none;endArrow=block;exitX=0.5;exitY=1.02;entryX=0.5;entryY=-0.01;rounded=0;" edge="1" parent="1" source="GQEL2rc2uJzD6zCsfo1W-4" target="GQEL2rc2uJzD6zCsfo1W-5">
          <mxGeometry relative="1" as="geometry">
            <Array as="points" />
          </mxGeometry>
        </mxCell>
        <mxCell id="GQEL2rc2uJzD6zCsfo1W-13" value="" style="curved=1;startArrow=none;endArrow=block;exitX=0.5;exitY=1;entryX=0.5;entryY=0;rounded=0;" edge="1" parent="1" source="GQEL2rc2uJzD6zCsfo1W-5" target="GQEL2rc2uJzD6zCsfo1W-6">
          <mxGeometry relative="1" as="geometry">
            <Array as="points" />
          </mxGeometry>
        </mxCell>
        <mxCell id="GQEL2rc2uJzD6zCsfo1W-14" value="" style="curved=1;startArrow=none;endArrow=block;exitX=0.5;exitY=1.01;entryX=0.5;entryY=0.01;rounded=0;" edge="1" parent="1" source="GQEL2rc2uJzD6zCsfo1W-6" target="GQEL2rc2uJzD6zCsfo1W-7">
          <mxGeometry relative="1" as="geometry">
            <Array as="points" />
          </mxGeometry>
        </mxCell>
        <mxCell id="GQEL2rc2uJzD6zCsfo1W-15" value="" style="curved=1;startArrow=none;endArrow=block;exitX=0.5;exitY=1.02;entryX=0.5;entryY=0;rounded=0;entryDx=0;entryDy=0;" edge="1" parent="1" source="GQEL2rc2uJzD6zCsfo1W-7" target="GQEL2rc2uJzD6zCsfo1W-16">
          <mxGeometry relative="1" as="geometry">
            <Array as="points" />
            <mxPoint x="840.5" y="858" as="targetPoint" />
          </mxGeometry>
        </mxCell>
        <mxCell id="GQEL2rc2uJzD6zCsfo1W-16" value="&lt;font style=&quot;font-size: 24px;&quot;&gt;End&lt;/font&gt;" style="ellipse;whiteSpace=wrap;html=1;fillColor=#e51400;fontColor=#ffffff;strokeColor=#B20000;" vertex="1" parent="1">
          <mxGeometry x="748.88" y="874" width="184.25" height="83" as="geometry" />
        </mxCell>
        <mxCell id="GQEL2rc2uJzD6zCsfo1W-17" value="&lt;font style=&quot;font-size: 24px;&quot;&gt;Start&lt;/font&gt;" style="ellipse;whiteSpace=wrap;html=1;fillColor=#008a00;fontColor=#ffffff;strokeColor=#005700;" vertex="1" parent="1">
          <mxGeometry x="747.88" y="224" width="184.25" height="83" as="geometry" />
        </mxCell>
        <mxCell id="GQEL2rc2uJzD6zCsfo1W-18" value="&lt;font style=&quot;font-size: 24px;&quot;&gt;15.&amp;nbsp; Write a Python script to sort (ascending and descending) a dictionary by value.&lt;/font&gt;" style="text;whiteSpace=wrap;html=1;align=center;" vertex="1" parent="1">
          <mxGeometry x="360" y="70" width="935" height="80" as="geometry" />
        </mxCell>
        <mxCell id="GQEL2rc2uJzD6zCsfo1W-19" value="" style="shape=image;verticalLabelPosition=bottom;labelBackgroundColor=default;verticalAlign=top;aspect=fixed;imageAspect=0;image=data:image/png,iVBORw0KGgoAAAANSUhEUgAAA6EAAAGECAYAAADHpSaGAAAAAXNSR0IArs4c6QAAAARnQU1BAACxjwv8YQUAAAAJcEhZcwAADsMAAA7DAcdvqGQAAIYnSURBVHhe7f1fiCNnnif8ft266BmYLL0XRRlXpo4Prbc0eTS6cPe0yYpB2/QYqlMmaDoxuYn74lBg0Fj2NNqWTWEWqmv2lAtemsIWK7xuuQMKinNRRW5i0jSBVZvgbfqIiRLVr19faHNy5VUfF0qVqaQuVqmBxT6IPhdPhBT/JEWEpEgp6/uBhEop6sknnnjizy+ef8/8z//5P/8MoqfIX/7lX9o/IiLq+1//63/ZPyIiIqIpeqbdbjMIJSIiIiIiolA889VXX7kGobFYzP4RERERERER0US+Y/+AiIiIiIiIaFYYhBIREREREVFoGIQSERERERFRaBiEEhERERERUWgYhBIREREREVFoGIQSERERERFRaBiEEhERERERUWieqiC0e7CHnZ0d7NXa9q+I5h7rL7lro7ZXA2vFeDyHaN6cbJ08/deOky1fYR7yQDSPnqIgtIt2qwMA6LQOT/VFd14ZF2Jeh4Ng/SU3XRzsaWh1AHTt3z2F2rUR1xieQ65GltkEZpXuohlZDidcJ7sAOi1oOwsciM5z+QJzkofFwGfEp0/gILR7sIedvYP+c0+7tmP53Q9R8fZwMPQ/t1Hb2cHe8A08WMJyLAoAiMZWsGz/2qR7sIe9Rb4ouzBObuvPHvZqB2hPUqy601hm88V7/fVjVsdtVukumlmXQ7t2D/VOFKn1NSwv2b8lq9mcQ0TBnXCdXFrG2noKUbSgncon/9mUr7/r+mzyQHQaBA5Cjzsd4MwSxHNPF91jmH6fT0url7C5uYlLa6MvA8edDsR7q9Oug06rDu3eqBcA3jw9ZXZyvNZfP2Z13GaV7qKZaTm0a9BaQDR1EavzfOGdI7M4h4gmceJ1cmkVF1NRoKWdyhaoWZSv3+v6LPJAdBoEDEJF0BmNntF/P0bHzxlps7R0RgREx/ZvdN0uRIzLJ61JxaRNbG7qP+vrkGJRAB3U7wdrxSaik9DFwX4LiKZwkREoEU1gaTWJGIDWPp8DiCg8z3z11Vd/tn8IALFYzP6R3i1WQ8v+sV1MwqafNz7tGna0FmLSJlz/W/cAe/fqONP/XuTjOLWOS6vAQe0+6nqf+2gshYtrq6YWWZc8u+VPz8Mo0dQ6Llke+LpoH+xjv97S34pFEY0lcXFtebIW4W4bB/v7aLUGb9ui0RiSF4N3uese7OFeveNSxkb5xCBtrmFZL+tONIX1S+Zy1Leu7UBrRZFav4TVY39lZs5DslvDfaPcojGkLq65tOZ00a7dx/6YchDpAqn1i1hqm47H0HT9sB9jUceSyVX3Y6EfO6M+AlHEUhexZsnEDOqvpRwuYbk9onwD1XUPAqXr7Rj75+e4ec2Dx+MWqBx80v/G2HR8XUv8lJnXug6XdN2vk/7PYz3dVsvxEtR6nQtyDvnIQ+0+tH4ZmOnXScf/8cDjcQuUX09l5pefdL3VB/dtWSc95SFAnRz+jBCAx/rr3/TLt29c3fF9XfebB2/3Id/1wfOx8Hh/8/OMaP9yDM/PMDPMA4UrYEvojHUPsDdyjKiu00Zt557pogF0WnXcC6lPSbt2D5rp5ii6t2q4F3BsrNDFwX0NddMFAwA6nRa0e17HIExgaRmicbTlMla0jcMWgFhyghM7iuP9Pdwzl1unhbpj37o42LsHzbUc3OpGB637tuPhmq4/zmMs6pi275Jq9wB798SxG+igVb/vkt/Z1d/W/R2X8nUrs5Pm9xh75/24BcjDjI6bH+3DlnhIGvlE5+9a4r3M/NV1Z7qjrpNez+PuIF1zFqbCex6MujNd/o6bn/zOpsz8peunPji3ZZ0cl4egdXJpOYYogNahS9n64rf+ejXD8vVRd2bD733IR33weyzG3d9m/owItO67PSOayiGEPFA4Ir/85S//g/1DAIhGxUBqqzNYSSaRTEbR3T9EVNrETy4mkYx9B+3mEc4Zv68Y3XQ9euZf0W4e4Zv/LYb42e+i+//9v/Dfjjr45i/F73jSxP91+Az+b38Tx9nvQlyM9g9xdHyEY0SRkn6MH138PpKxKLrNQxwfP4NocgUiF0aeB/k+jsaceTyzom+TRLS7j8PjGKTNn+Bi//8mRV4M7Rr+y387BmIS1n9yEd9PJpFMxhDtPsHhUQvfRpOw/wlvvsWTJ9/i3N9IYp/66TZxeHyMZwKm++2TP6F59A2iMdP/73Zx8MXv8T+OAcT+BhdXzgD4Ls7+RRf7h0eD8je0/wX3D48R+5uLIg2fZSby0ME333yDaEzCj39yEd8fsm/dgz9Aa30DRFOQfvwjXPy+qXyPOzj6Nto/hsa+ffMNxqbrTxv/cv8Qx7EU1n/yI/0YJxGLfgffPvNdrJw1J9rFwR80tCx50PP8nWN8e2ZFr7ti26nXX0v52srhO09waD6ffB43z3ym6+cY++P9uPnLg8fj5rMc/Ovi0b80cfQXF/D9/8dZDE/Jz7XEe5n5qus+rpO+zuP2FyJdy3FLIhbtonl4bL3O+T6HvOfh9/9D5GH9p3qZGXUBMUibP8L3hh+cEbwfN7/59V5mPvhJ10d9YJ0U/OYhcJ387nfx/2s3cfTN/4ZYfNR1ZRzv9deXGZWv57rj+7ruPQ9+7kO+6oOvY+Hx/ubnGdGnoc+I9meYGeaBwhWsJbTbxTGiGAwJ7aBj/n0iYjrraDSKTqvt8lbSLAZp8xJWjdaApWWsuPUingHREhGDZOm+s4TlNX1sReC3iUtYXVsb7JP+2fKUdqylmWbHvXcP9Zbo6iCZu4gsryAGOMq/fSjGoCWH9SbxKibhUr/cBvt23DX+mjGleQzSJXO3qyUsr11ESryudb7FG5tuQK0W2qbXbUvLq1hbtRVCty2WybDkASIfqy5dZICZ1d9oat1aDvp4H/vxPFkBj7EfY49b0DzM5rh5p4/BHzsRXIBrydgy81fXA10nx57H+nhYx3HDmPLwYWwegG5XTGIQS5q6gy0tI5mKAjhG8MtOgOM2Nr+zKjN/6QaqD6yTwtg8TFonlyCm5+hg2PQc3gSov2PNsHx91J3ZCHgf8lAfgh0LD/e3GT8jenqGmXEeKBy+gtCusczHvTo66KB+Tw9mtBbQ/92t68AYS0t6qw/0B6woYskYopam9jNwzEvkMt318tomNjfXHJ9Plz4bMFrQHMue6GMAjrvBH/i7bdT2bEuqjBmLEEg0ilhKwvole3npNy1z+XcPsN8CojHzRTqY2Mq4o6M/ZLsc3/6N0uWGOj5dv5axJsUQRQd17R52dvZQOxiypM2x6O7iKw8u+zeN+uucwOsMXDs2nKhgx9gbr8ctYB5ctp/GcZsJz9cSr2Xmp64Hu06OT1cXjZruG9PlJQ9iQj2gdWjqwtltY7/ecb9f+eH5uAle8gvMsMw8peu3PrBOmnnJw0zrpB8+669nsyhfz3VnVoLdhzzn1++xcMmH8/4222dEb88ws80DhcNXEDprnc4x0D5EKxrD8vISzugz5hpv954K+tiE1tQHPQiW2XEvXcLaqvvJKsaHdNDSz+5uu4UOYkjO/rXgfFlew6XNdaxLKcSiHbTqdWj3drBnG//3VNXRReDxuJ1qfq8lHsvs5Ov6ZLOxT81yUm+lqOOe8XB3Tw9kXB7kPPN73DyZVZnNKl0d66Q/s6qTfixU/Z2HujNDMzkWwjw8I85DHmgyvoJQY62j9VQUosleBDNSDGIMwuYmNjcnm42q2z3Wu5mJLgCuXWNC4XzzNKC/nervs8uPy4xdXrT36+gAiKYka9qSvT/EjOkDv0VXB727yNib2KgyC8CtC0r/TXaIb3WxJLqAXdrE5uY6xMu3fUuLv/EGeuKuv7NgdDca2n1zysetz0O6Mz3G448bMOs8wFs5+KK/FXZpsTELdi0ZX2be6/qsrpP6/rt0GxRdLUPS3ke9Y58/IYpYan3EDJjjBTtu48yqzPykG7Q+sE56NlGd1K95E7Y2Llb99VN37KZ8XZ/BfWg2x0IX6BkxoGHPMGHmgWbCVxBqOLa8VTFOkkkYD1X7uF/v9LsZLK/EgNY+9juTXxj9OCOudmi1h4+hOxONAp067tfa070Q6c4snemfbN32AWr7k11o/VvCajIGdOrYP2ij1YkiNaKTvZcy884Yg9CCVjOnJ6Ywr3dCeqvbPUCtdoC2bYzFsr62qmVdW2N8Qv0e9g5seT6oOQOfmTL9sW4btfviRuTWfWe6x21gfLozPMaej9sM86AbXw5BGGO33GYGdPJ0LfFcZv7q+myuk0YXtRb2jT/WbeNgbwejeplNmzG2MHnxItbXjQe8Sy7LgQTj6bh5Nqsy85eur/rAOunbRHVy2IN+QItRf/3VHcN0r+sh3IemeiwM/p4R/TGVareNg6HPMLPMA4XB5zqhQru2A+3YWJ9HTC1dPzNq/aNx9DQ60FtY9b7nxlpA0N9c9t9Q6usvjVxzSTdmbSfXdfaG/B/rtuY8OwVda8tYq2uYSdP19/9N61wNWY+pz0OZDc2D65qHLmtsGaIxSKZxrP7S9cFc/xxM9dQwpAyca7PNpv6OrDvD/taQ9AOXmcFTut6PsS++jpufPPg4bgZP5RCAh7o9sj7YryW+ymz4fjnruvfrpK/zeEh+o7EY0GqZ1pQelVfB7RzykodR5eu+Dp83o9JFWGXmh690vdeHYekKrJNueRhVd8bVyaF/x6dReYD9GPsxo/IFRm1vrzu6Idtb0h2yjSHovXDocfJZH+A4FgHub36eET0Ymd+h+ZpuHihcAVpC7S2f0+irb7zlgrXF01gLCNN7O+fJ8hrWpZjLQGizJaxeWocUi2LkZj4trV7Cekqs1yVEEY1JWJdSU/073gxmRRs70NtTmfmxjLV1Cal+BcCgLIIGJ34treKiY5/0PNgfgGCUQQoxR1eoi86bWFiMyadcL96zOG46T+nO6Bj7Om4zyoPBUzkEoI/96tT3XbpwCb6uJb7KzE9dn811EkuruCSlBvmNRhGT1nEpOdW/MtKSPmMjxJ+3GLkO3xi+jpsfsyozX+n6qA+sk74Fr5N6V8YpzCq6cPUXfuqOburX9dnch2Z2LPp8PCN6sLScRCoWtZZrdFx38unmgcIVqCWUnh7t2g60lstbZ5o7Q9+Q0unk8uabwmK0psUgrdtbl7o4qInlr3guUniC10neOyioeXhGnIc8UDABWkLp6dBFu7YHrQVEU0me2ETzZnkNUgzo1O+7jluiWRr0ALJPD9XtHqMj+oZNae1sIi8C1snuAe7XO0BMYgBKPszDM+I85IEmwZZQsrKPY2Af+4XBt9lPI2M8jFvrB83O6HGFgH3MF9GsBaiT3TZq9zS0eJ8nr+bhGXEe8kBTwZZQGsIYj8ATm2h+LWNtUxJj53mihsg0rtA2uCoajSElMQClsAWok0vQJ77hfZ78modnxHnIA02CLaFEREREREQUGraEEhERERERUWgYhBIREREREVFoGIQSERERERFRaBiEEhERERERUWiegomJjCUMTGISNrmGBRERERERUegCt4R2D/aws3fQXxK5Xdux/E5ERERERERkFzgIPe50gDNL+to8XXSPYfp9nixjbXMTm5ub2NyUcFrad4mIiIiIiBZRwCBUBJ3R6Bn992N0OrZNiIiIiIiIiGx8jgl1GV/pxu+Yy+4B9u7V0YmmsH5p1dGa2q7tQGtFkVq/hFXjy24bB/v7aLU6MOLfaDSG5MU1LNsT6NPzPyR/3YM93Kt3EJM2Yfm6XcOO1kI0tY5L/QwAQBftg33s11t6HqKIxpK4uLbs2AciIiIiIiIK3BI6ZUvLiEUBdFpoOwaVtnHYAhCNmYLLLg7ua6ibAlAA6HRa0O7V0DZ9Nkvt2j1o/QAUADrotDTc49hYIiIiIiIiVz6DUGN8pRhbGZP0sZbrKUTNv7u0Mo62hNVkDEAHLXsU2j5EC0AsaWshPRNDSlrXx3puYnNzHVIMAFo4DCMKbdegtUSr77olD1GgU8d+GHkgIiIiIiJaMD6DUF23i2NEMRgS2kHH/HsQyyuIAei02pZWxPZhC0AMK5a4dgmra2tYtfS7XcLyilsX4tkw8iVZut4uYXktiRiAViiRMBERERER0WLxNSbUGDM5mm3spg/OsZ8jxnB226jd30fLZUYkx5jOvhHp+RoT2sXB3j2MLIoh41uJiIiIiIieZsFaQmdkOZlC1Nwlt32IFqJIJe0B6AH27mmuASgRERERERHNL18toQbRYngG0uYalo0WzONptPzpLYwQaR0PSVe0mALRlISLq6busHqLpaMlsy9YS2i7tget1bHMjju9fSYiIiIiInp6BGoJPba0QIo1Q6djCcuxqD5LrpgVNxobvtzJmaUz/e+67QPU9scuHjPS0pIY1No6NGa37fYDULszUTEB0f1aG13PU+F2cVDbw87ODvZqHDNKRERERERPn0AtodZWQL318ox766J/orUSsRhaLfRbW83GjU21tGTqraPDWNf+HLIOajQKdKwtoePGhdpbUwGjG3FdX9Il5rpvREREREREp1mAllB7y+cxpjs0cxkrMaDVagGxFdcgbWn1EtZTMUT7n0QRjUlYl8RSMcEtY209JdYsBQBEEUtJWL8kZry1WsLqJbEki+e/ubSMmJ54dMi+ERERERERnWaBWkKJiIiIiIiIggjQEkpEREREREQUDINQIiIiIiIiCg2DUCIiIiIiIgoNg1AiIiIiIiIKDYNQIiIiIiIiCg2DUCIiIiIiIgoNg1AiIiIiIiIKDYNQIiIiIiIiCg2DUCIiIiIiIgoNg1AiIiIiIiIKDYNQIiIiIiIiCg2DUCIiIiIiIgoNg1AiIiIiIiIKDYNQIiIiIiIiCg2DUCIiIiIiIgoNg1AiIiIiIiIKDYNQIiIiIiIiCg2DUCIiIiIiIgoNg1AiIiIiIiIKDYNQIiIiIiIiCg2DUCIiIiIiIgoNg1AiIiIiIiIKDYNQIiIiIiIiCg2DUCIiIiIiIgoNg1AiIiIiIiIKDYNQIiIiIiIiCg2DUCIiIiIiIgoNg1AiIiIiIiIKDYNQIiIiIiIiCg2DUCIiIiIiIgoNg1AiIiIiIiIKDYNQIiIiIiIiCg2DUCIiIiIiIgoNg1AiIiIiIiIKDYNQIiIiIiIiCg2DUCIiIiIiIgoNg1AiIiIiIiIKDYNQIiIiIiIiCg2DUCIiIiIiIgoNg1AiIiIiIiIKDYNQIiIiIiIiCg2DUCIiIiIiIgoNg1AiIiIiIiIKDYNQIiIiIiIiCg2DUCIiIiIiIgoNg1AiIiIiIiIKDYNQIiIiIiIiCg2DUCIiIiIiIgoNg1AiIiIiIiIKDYNQIiIiIiIiCg2DUCIiIiIiIgoNg1AiIiIiIiIKDYNQIiIiIiIiCg2DUCIiIiIiIgrNHAWhFeQiEUTMP7mKfaPTpZJDJBLBvO9ms5JDOq0fk3QJTfsGusqtCCKvRxC5Nb871Pw0jcjrEeS+sH9DXizCMX5aLMKx4Pk2mUU4xk+LRTgWPN8mswjHeD40Ueo/E6aRqwx7KiQabY6CUJpLlRwSsgJNs3/hdOE5yf6RhXGDtP6kkb5VQuWxfWv/mp+mkX49h9N2+2h+UULuXVOZvZtG7tPK0JcBfon0zcdmeBmOO8YzdVhB42Yav3s5ov+k8X/+52Gl0MTX/zmH3/e3jeD3Nyv4V/tmfU18fTMttv/Hkst2TTT+cZCW64/r/5udcceC59skmqjcSiP9egSRd4e/ePOnicqnOZGm/pO+Nfo8HneMZ2pm55uPbX3lYbbGHQuebwE9rqB0y1x2aeQ+nfwYB7lvjjvGM+Wrrvs4hwAP9zeD33QBaBoUOTH3jSk0n+YoCM2g3Ouh1+uh11ORtX9NJ6KyqwAAssWGODbVPOL2jWyk5y7YPxpBg1YrQL6WRmnCG/WXX2vwECsvmApu/qYA5dD00aEGZVdGYuK3tU2U3o0g8ZsClEN/JefvGE/BYQm/z8r475+Z86nh0a0EfnfTWQ5f30zgj7cUdE2fdT+T8V/tN+BDcXP+3csJ/PEzzbL9ovB3LHi+jfRYBJ+R1xOQa9Pdv8qtBORdxZKmVpOR8BDk+jvGUzCr883Ptj7zEBZ/x4Ln20iPS0hfk1GoWY+xspuYsDVysvumv2M8BT7ruvdzyN/9zXO6iCNfFc/rjaJ4Wld2nfkkGmeOglCaW1IRV/LjQk/vsm/00PtI/7negLomAdBQ+O34h7GnUXKtCPW6ucyKkACgtjvRW/HKrQQKh4C0VoR6vTFI/6MyMvaNT9pKAkvfy+Kv/6mBn37aw08/7eHv/0l/VfXZLr42b3s/hz9+BuB7WfxQEdv+VFFx/nsA/lTAH01vl7++I27OgIS//qcizpvTsYgj8Z/0tOw/ej6Wfizjr+z/bQ7wfPOuoorgE5BQfKM4vZehX+Qg1wCsZAfn8nUV2RUAhwVcnkLLz1TN6Hzzta2fPMwRnm8+PJtAaiWL4huD+0/jDf0YT3h/m9V9cyb81HUf55D3+5u/dM3i+SsonmADMi22AEGoGLuZLjVFS0ou3R/Dmc65XWSbqJRySPfHeqaRzo3uEuGNj3SbFZRyadO2EaTTObh3Y7enK/bL27Yj8mBsa/Sjj0QQkUUr42kRfy5l/2i8Z+PIvHZVPOwd7uNL6G9HR3SDE+M29DfLX+T63W3kGgAokG1dotJDHvCa5q5x7+aGvKk2dcsz0ns35+heJbpipVF6bOtyNzRdrzLIv5ZH5lnTR8/mcXXN9HsQj0u4UQOwpqL6Wh6ZZ729ZPBzjCu5NCKR9JS66WTwt/+pjMTFQT7/6mIZP3wJAOromt54f/3/UcRN99+X8dyK/uFKBn/774tYAtD9vdp/q/vcvyli6SUVf/9pFYmLiUEinjXR+H8rALL463/rrQynxc+x6OP5NlLmB0VIayoaH1WRfyFIfXBX+VzUyeI/lAfn8rMZlP9BPBhrf1Rdy97PMV6E883Ptn7yEAY/x6KP59sYGZR/VUb+hcExjr9QhroGAHU0Aqcd7L7p5xgvwvnm5/7mJ12iaQkQhOr2VeQiCRSUQfcBTSkgYTsjK7kE5IK5C5IGTZGRGDHBjRfe022idFlGQbF2ZdE0BXLCOb7Cma7YL9mlS4Rz2+F56G976vrTmLxQRu+jHqovT/gw/qyMrRUAh9tQHTehCnZrANauIm++wfgiof67NBLmrnGHCgrX7PWhidK7zm552qEypHuVhu3f2rrcuaY7meYXOdyoAdLGlcAtls3Pt6FBQlH2mYLnY1zBrqKJrlU37OfDLFXw6DMA39vCeeNGCn28zZ1t0c3oT/uD7kYX8/jxlUzwFsz7N/Hf/wQsvXYFz9m/mzXPx2IMnm8DL+RRfS0zdsiBP3oZrmxBNpfh4wpK6rbIuxGg2Hk+xotwvvnZdg55PhZj8Hw7EZ7um56P8SKcb37ubz7TJZqSwEGophSgQEJR1ccKNvRxnIqpq0MlB1kBkFXR6I/3bEDNSoBWgEtc543fdFPZQT772wKAAms39gp2FQDZoindHhpqEdmkeTufeajcFNtKRagNc7qTdfaq5Eytqm4/jmDYp2ZJlMcsPW6idEuGAgBrG/rNIY78T7Pipve5bQ++2IUCIPsD/Tai3zR6H/X0t6dZqP1upeLHeUPRoB1qeotHD72PGvr/VbBrmlWw+ellFA4BrJi79Zi6V6n2igZohxibrn9i7KbxpjrxGwWpjYbLfnn35dcagBTwdQ5py+QNOZS+mKjW6DLYyEoAJGSvylN+qDe43DgPG+JG+X9P6DdefUyMZbzNtFpRTq4VNDCeb+F73EAdAJYT+nmgjzu1jIWbpNUHi3G++dl2KJc8zDOebwEMeWnj2/TvmwMLcL75MY10lRsouXcZJBoqcBAKZKH2qshn9NMvnsGGLaYSk9pkoZbNb5bjyJRF95SgA5n9pRtHvlwe5NPY1p5ZM2UbqulkimfyKOet786856GJ0g1922oe5mzM5sI1uWZJ72KdKECRsijeHj8ZkR/Kb0xBz7UECsZYqddMZfzCBrJwdlOrfK4AK0VcecH0YRBrqqnFI47MD0R9qH9t/LUm1D9q4rj9ytytJ47Ma7dRXBkytmRsutOh7CaGdsMar4lGGwAUFH6jQLNM3qCg8JvEVKb4z5Sr6PWqKFvOven5+qaMR5Dw1/8+73jTuwTos/wNxsScf03FD1+b4uCVk2wF9YHn23yQAL0r42DcaXZDhboxnTq5KOebn23tRuVhXvB8m0zlliwaOP5hus8dmPi+abUo55sfwdKNI3+7iKykoSAnxBC20nTKmE6/4EFo1nirN5Ap99DrGZOaNNGoA4AC2d5CF9HfDNYbAVrqAqTbrCCXHoxdjUSGjcfMoKxmIcE4mdLIldzGgwbIg5TEtOdbE+U94sfDTLYnbkU8iDV+ZZ8MJ4MrG5K1y5I+jlH64eRvHvtvmof6EvuH5rfXZnEkluHaejE+3SDiyP9q8Oa78YY+jmx38mBRWlPRML8F1x+Ilc8djx9z5eubafzxM+D8P1WRcGkR6X4m92f5M8bE/O2/zQBfGW91J7WAraDg+XaStJrc78pojDstv5wBvp5WnZydaZ5vfrY1G5eHucTzzZfKrTTkGpB9ozpBd2TD7O6bszaurgc9h8YJnu7o8aZEwwQPQhdFs4R0QobidTBmpoxqryG64EoalEIBciKCdODR519i3+OfnhfxfLXfDVnSFBQc/ZsnY5k98FfiQcztphv/wRYkU5clMY4xi6tT6U6zuOIv5FHVZ/qb6A30ShG3X8sgbn4L/rL+Frwd5AVRGJr4+mYEf/xMw/l/auBvL9q+XklgSf/n0ktF/FDpmcbENNH9CgBSWHK5sfuit4LipY25bgUFz7eT92wCxnQnYibqnqk1yeiVkEJi4ofuWZji+eZnW4sxeZgzPN+CaKJyKwK5piH7RgPlSVuCXUztvjlTY+p64HNojAnTrdyUoWgSivpws+oUV1Og022GQWgciZQYB2keXzl5S52/dCs3C+LNc9E8drOH3sjxmHHRBbfaQ6/XQFECNOUGBj0M/OThApISAM058YSxBmdQsx4TGs/kcTXr0qobFn0CB9FlSe8+5Prm1sz59nYibl2S5v7BcRz9TbfrxBjzrInGPyb0N8Q9/K1pJsGBC1j6HkQ3op/nB7P8AcChikd/AvC9ZP+GG4zRCirhr38+ujYuFJ5vM3IByRUAkLAl22bsfKxi+xDAyvR7ykxu2uebn20NXvKwoHi+6YwJkkQAXzbNlPt08VLXg5xDXkySrt4zMHsVjD3JrxkGocCFpJik53KuguYUo5gg6aYSF/qBabNSQu6GSwDYLCGXK6FiSTQOeUsM1N83RZHe86AHrFBww4himxWU0hExWRGNoE/gcFjAzU9VbB+Ons31wnPiOG1/PmyZHD8y2NAnXZBvmdNronJLn9Bh7APDbDQfV5D7bQEaJGz9wO2q30TpVlpMtz9kYW4xlse+dt1g36bRJWy6U9iLG/R//5Ok36Dt3xviOP9jUQ/++/+Rw9fGeNfDCv7P/6OALoDz/0/nGBtf+q2gV127StmJcpikN0VYeL4FM+58i0P+oSirwm9Ny1/0z2Mg+9MgL2St5v9887MtfOTBiuebF/NyvokAtHAo6QGo/Xs34843d+Pvm/7M//nmx6zSJRptpkFoPH9bb0WUkUg4W+osJ28l5xxXqcj9z8wDnf2keyGpj3HTB0xHIhEk5AJMK8tY1JUC5MRg20gkgkRBDODfMF2R/eQhc0Ufi1DQ003IKGiAlM2KxZMDOhVjQsfRJ3BQdgvQxsyWZ6zxpe3KSJjXPQs4EUHmNX3G55o5PX1SEftEE7NiWieuP8vfNRnKISBt3HYfN/NYxbY+66bm+qYbwAtXRLfbw4Lrvk3eJWy6U9j/63++LAI/aHj0/4rgdy/bfv6x1F/D7K/+7W389fcA/EnBH7P691lZvM19SbXe4O/nTOnIeASxMPd/dUlX8NsKapSDvTfFnOL5ZjrX9PuQ+RxxW9vRw/kWN7q5HyqQr+lp6ecx1lSPD9+jLMb55mdbP3kY4Pnm1Tycb/0ZeqFZJ3Sa8HwLdN/0ZTHONz/3N1/pEk3JTINQII58VSxbMkmw5eQ93Xi+ikbRHOxJkLKqGO9o2RJAPI/bahaS5Qt9+/6ESwbveUA8j6paHKQrSciqDVSv2Nd9ISfjja2H1rkXymi8kYXkoXXKmwzK11UU18xHWBKTijgmmgiLNBhXNixQfFbGlp5naejb7DjyvzKm4zdMc9/CmMJ+mDgS/6mBH75k3bfzr6n4+ysT7pnPVlBjsrPFwfPNtwnOt+yGisZUHvYX5Xzzs20QPN+8O83nm52H+6Yvi3K++TGrdImGe+arr776s/1DAIjFYvaP6ClUyUUgK1mojiA8PGLCgizUj04uD0RBNSs5XJYVaDjZ88grnm+0yHi+EYWpglxEhpJV0SuzBpM/M24JpdNBwY3SNMah+CUWdZdrgLRxhTdoWijGxGEJWSzLkVXn/SGT5xstLp5vRGFrolK6IYYtEAXAIJRGGoxnlZGITD7jrif98RzG+JQibk+lCw1R+CQpC7XRw9y+JOb5RqcIzzeiWWuilI4gEklALmgAJBTZZZcCYBBKo8XzuG0ezxoqY3zKKZhgiZ46xsRh1WoZmYWowDzfaHHxfCM6AZKEonqby7NQIBwTSkRERERERKFhSygRERERERGFhkEoERERERERhYZBKBEREREREYWGQSgRERERERGFhkEoERERERERhYZBKBEREREREYWGQSgRERERERGFhkEoERERERERhYZBKBEREREREYWGQSgRERERERGFhkEoERERERERhYZBKBEREREREYWGQSgRERERERGFhkEoERERERERhYZBKBEREREREYWGQSgRERERERGFhkEoERERERERhYZBKBEREREREYWGQSgRERERERGFhkEoERERERERhYZBKBEREREREYWGQSgRERERERGFhkEoERERERERhYZBKBEREREREYWGQSgRERERERGFhkEoERERERERhYZBKNFTrnuwh52dHezV2vaviIiIiIim7pmvvvrqz/YPASAWi9k/ooC6B3u4V+8gJm1ibdn+7aJro7ajoWX+KCZh8/Tt6OJq17CjtYbUvy4O9u6h3gGAGKTNNTg2ISIiIiKaosAtod2DPezsHaCr/96u7Vh+D6aLdm0Pezs72NF/9vZqaHcnS9Wv7sEe9nZqYLsQnX5LWI5FAQDR2AoDUCIiIiKaucBB6HGnA5xZwhIAoIvuMUy/B9FGbecetFYHHdOnnU4L2r39UAPC4441DzTKMtY2N7G5uYnNTQlsP188S6uXsLm5iUvOZlIiIiIioqkLGISKoDMaPaP/fozOhFFbuya6dEZjEtb7Qc0mNtclpPSWGiIiIiIiIlpsPseEuoz/cxNgTGC7tgOtFUVq/RJWPTWndtGu3ce+qeU0Go0heXENy5b/L/J8nFrHpVXgoHYf9Zb4H9FYChfXVkXrrT5ubpRoah2XvGXOQowJBVLrl7DcruF+vSXyHI0hdXFtsL/dA+zdq6MTTWH9kp4vE/9lpAuSbreNg/19tMaWr5leP4Yc/6FjY/Wyd5ZvF+2Dfewb5YUoorEkLq4tO/bBF1/7Zs+DqDfJ5KrLtoO0jToGRBFLXcSa44DZ03Xft0HduYiltml7e90Z/A+RbqvleDFkLXeXc3nkcfOZh9p9aP0yMAtQf4mIiIjoVAnYEjorHdT32x7GlYrJVNy77u7hwC2BjujuOwgOgE6rjnshzgjaur+He6ZgBp0W6ub8Li0jFhWftx370MZhC0As6f8B3ku60ZgpqOri4L6Gumv5hjdWtl27B81cXuig09Jwb6Kxx/72zZkHUW+0ffuWRrAv0h7ooFW/76iTznRH7VsHrfu27Tst1B357Q7SdYv/JuI9D8a5SURERETkJvLLX/7yP9g/BIBo1K0L7BmsJJNIJqPo7h8iKm3iJxeTSMa+g3bzCOeM31eMbrrenVmJots+xPHRIZr7bXS/8xeInj2D79o3BNA9+AO01jdANAXpxz/Cxe8nkUzGEO0+weFxB0ffRk156KK9f4ij4yMcI4qU9GP86OL3kYxF0W0e4vj4GUSTKzhzZgXJZBLJZBLR7j4Oj2OQNn+Ci/pnyWQS8bNuuRnv2yd/QvOog2+++QbRmIQf/+Qivp+MIfqdJzg86uCbv4zpaX8XZ/+ii/3DI9Nnuva/4P7hMWJ/cxH+i9dDuj/4Eb7XT/dbPHnyLc79jSTKKmmUbxOHx8d4JpockgdR1sfRmGsdEOXwDaIx2//vtrF/eIy/OPe/D/LWruG//LdjICZh/ScX8f1+Hp7g8KiFb4fmYRw/+9bGv9w/xHEshfWf/EjPQxKx6Hfw7TPfxcpZy07g4A8aWt+ILuXiGOtpf+cY355ZQb/YfeybUWbfWNIdkt/2FyJdy3mRRCzaRfPw2Fbuxrk8OJ/HHTevefj9/xB5WP+pXmbGuYYYpM0f4XvBTiMiIiIiOiWCtYR2uzhGFIMhoR10zL8Hsoy1S+uQUjFE0UGrruHezg72age21rsu2q2OWE7ikrlL5BKW1y4iFQXQOnS0aInlJy5h1fgPS8tYcetxPEPR1Dou9btbLmF5NYkYgE7L1Pq7vOL8DED7sAVEU0g6e0t6MypdxLBiSXcJq2trg7LSP1sOscCMfEmW7qlLWF4TZdY6dB5hbwLsW6uFtqkSLi2vYm3VdiC6bYhqKZmOMfTjbO2yGmjfLOkO8nvcnzm6i4N9PV3LeYHJui6bjc0D0O0ei02Tpm7fS8tIpqIAjhHyRNdERERENId8BaHGovY79+rooIP6PX0pFa0F9H8f0h3WE/HAfmlzE+vrEmJRveujpYutPgmS63ISS1g6I7ZxPOy6bL+8tonNENdFPLNkDwfOwNngrD+wm7vOdg+w3wKisUnGQupBt6VLrtHF11k26LZR29OPt/EzZszs9OizLaMFzfz3d3awY4xjPO66dFv1yPO+LWNNEi9F6to97OzsoXZgfymiOxbde2PWaN5FsH0bn64uGsVE74JG8JKHJXEConVo6lbcbWO/3gFwBo5TgIiIiIieOr6C0DAtLS1j7dIm1lNREeC6jcE7pZaW9dZgPdrptlvoIIak78GgVsvJlCVdtA/RQhQpe/OqPraxNf2BhSfP774tr+HS5jrWpRRi0Q5a9Tq0ezvYs40lNloAT87kM1RPxXJS741Qxz0juL6nB9duLzuIiIiI6KnjKwg11hMUgWEMkr6MihSDGAO2uYnNzenOfLmkd1l1tA65drk1Wpmm0eLi0po6bUYXTvv6qvpEQqLrrN79eBoP8JZ0jS6+5gmJhPZ+HR0A0ZRtuRxpRJfVCbQP7QGc3qLdr1MuPy6z/HoRbN+WRBfcS5vY3FyHaKjet7T4Gy2A5q6p7ma1b3qreqcDe2mK7r8hae+j3rGPKY8illp3nXmXiIiIiJ4+voJQw7GlycUI/CbRRm2vhoO2LdDsdtGu7YtWlH6gZozlbEGrmcc3imUh6kO76np3RjzNo9X2MlOvH6bUum0c3BcBkbOb4xJWkzGgU8f+QRutjktrZSBLWBZRKNpd0RV3VBffM0tn+t912weo7U8WzDi7anbRru25zqR6JhoFOnXcr7Vn8jLA0751D1CrHaBtyYBehuigY673xpjb+j3sHdjq5UHNErDOZt+Mrugt7Bt/rNvGwd4OXHsaz4gx3jV58SLW143A+pLLEjVERERE9LTyuU6o0K7tQDs21pwUSzLUz7ivMeiNy5qFFjFI6+Y1HEdsH41BumQe5zl67UpXQ9YMda5j6Y2xPqarofky7eOQ9T2DEekiFkOrBUguY2JH5he29SaHlJXBWmZDjls0CnQ6tm31ejUkG461Rj3ytW/G+qq2bYSYs+yGloV9bUzv++ZrbdUh+Y3GYkCrhTMBj5ufPIwq3+FrsRIRERHR0yRAS6i95XMaY9GWsbYuIRWLwjJPTzSKaEzCuiUAhWX7AX1bSwAa0PIa1qWYy6RBwSwtJ8W+WbI7roviYPbeUa2V/ol0W63W0BbjpdVLWE/FTMdCL1spZT0+vi1jbT0l1iwF9G6aEtYv6V2uLZawemkdkr1OTMjXvi2t4qKjHujb2wNQGPUmhZijK+pFWxf12ewbllZxSUoN8huNIiat41Jyqn9lpH73ef3dgtmwtViJiIiI6OkSqCWUwtGu7UBrubS4Ec0lo4XX3nNB/652D/VW8FZsIiIiIjodArSE0uwZYyWBaCrJAJQWxKBXhH2RmW73GB3Rt3zC9YSJiIiIaNGxJXSe2MfpTXUsKNGsjR7rCttYUyIiIiJ6OrEldC4Z41sZgNIiMY11tY0HjUZjSEkMQImIiIiILaFEREREREQUIraEEhERERERUWgYhBIREREREVFoGIQSERERERFRaOYyCH1SegfXI6+inHtg/+oEVJBL51Cxf0wTaX6aRuT1CNK3WLI0CzxviYiIiObVHAahj3Cw/RAAcKTUcGD/OlRNlNIyFA1A0/4dULkVQeT1CCJ6IGX//an2RQ6R1yPIfWH/AgCaUP+oAQC02u7cBgpGoOy+D4uugtzren01fua83trPL/vvFk0AmgI5wkCUiIiIaN7MYRB6HqtbzwMAzmXXsGr/OqAnpXdQjnzgK6it5BIoaBKKjTIycfu3wIXnJPtHAADpuQv2j3RNlN7VH5zfLbnFtU+JOOQfirKT1jaQsX9N5MLX+RbPoNwoQoICOccwlIiIiGiezGEQCpzN/xrXeneRK79o/yqwJ/sPcWT/cJRKDrICSMXbyLsEoGbGQ/Cwh+S+xyq2D4HsWhY43Ib62L7B0yP+chW9j3qovsYQ9GRkUP6oh95HPfQ+UpG1fz3HPJ9v8TxuFyVAkcE4lIiIiGh+zGUQevKaKN1QAKmI2+MiUB+an29DQxYbr20gCw3bnz+9baFEYYjnryILQLnxNPc8ICIiIpovvoNQMWnQO6g2gSelD1COvIrrkVdxPf0Bqo6nvAf4OPIqyqVHAB6hmhMTDolJhz7BE5dtje+vR17F9SETEw3y8AgHo/JQ+aCf1rYCAFVs2/6GyJtN5SYKGiBtyRgVgsafS7n+nnrO7X/p4yDXNpDBBSRXAO2P6pAH4yYqn+aQNo3XS98qoTKs5fRxBaVbYvyi+Ekj96lbyvZ000jfqjjyIMZCplF6bNv+3RxKrnnQtzO6Gr8eQeQ3in0jX+MQA+XBUgbmn/SQ/+OFhORzQHNUHh6XxHdDuliLsYsB8hAkXb0uWOrOu7nhdceDoWNj9XG/aUdd81bPzMSxSzv/hom/882QwZWiBGgF3HSvakREREQUMt9BqKF++VV8WKgOurhqVXyWEMGpw/4DfBx5C58pYsIhADhS7uDDIUGmNw9Rv/wWth158Dfu001lVwEgYUse9XAL4IWy6FL6sr6d/nv5BfuGg664oiuhPiZySJfcyq0E5F0FYuoeQasVIKsuT9GPS0hfk1GoWbaGsnvZEfQ409Wg1WQkXIMcDdu/tW1/qKBwzT7RS3OQ7qHliynwnofSuwnIljKYnu3fppFw5MEU/D0rY2sFQ45nBbs1AGtXkX/W/t0YXtJd2YLcT7eJ0m9FXbDUhkMFsqPMZsdfPYO+L5qot78bto3P880kLm9BAqDshlUCRERERDRKwCD0IY404Fz2bbzZu4trvfexVXxeBIaqs2XxSLmDOp7HS+r7uNa7i2uNt5ECAMvsty/ild5d8X1P/34MRx6yAFDFvvGsmfmFnt5d/bs0tvp/Q/zk8uctaQJNNOoApC2Mi0H9EF1xJWz9QCQa/8EWJNcuuUbQUkSjP2avh8YbRWSfs22KJkq/LUADIK2ppu0bUDdsJfhFDnINgH27NQk4LOCmSwuUdmhOtwF1DQAU7Jq3/eKmSHelCPW6Ob9uowz9j0P0mofCochDf9+uG+lnoX5U9R8A9mnQDjVrHjYkESD3j10c+Z9mbZ/pvtiFAiD7gyBjXz2k+9O8tbV+OYviG43+cRhaZrMSoJ4BGWysSQAkZH86uvdBIHEZWxKAemN4gEtEREREoQkYhALniu8jV34RZwExo21+EykAR9sPbN1soQd/v0Y6owd88ReR9BKBjJN925qHjTQA4KjhDIS9+xL7GoBUYooPw3pXXHOrld7KNbRLbm0b6heDb+Iv5FF+2RbI6K2rWFNRfS1jym8cmZfLlsCr8rkiAjL7dq/pY+Y+d2klsqQbR+YH4qDVvzby1UTpd3q6v8ojY/p7Uyu7sXkAml/XAXtA9mwGVzYkAHU0HK2I/kgbDWseXhZlZjl2L2w4PzPKfaWIK2Na64YalS6y2LCkG0f+tTLyL5hLf1BmYQhUzwBkXqui91EVZUvepyWORAqAto8v7V8RERERUeiCB6EJewviMs4Nm6zSZamV1fJdXOv9wvG5H6mN6c2eO1NGV9wfmlt54kgsu3W1zKD8RhYSNBR+k9DHdw4ZD/r1PjRPrWxNNNoAoEB2jJeUoQBA29lKND5d3UoSLotkTIWXPBhjA5XPTV05H1dwc1cDkEIicCuo4BxzKMb0WulBr/l4Pi7hRs1+3P3KYGPNXk+M1nKX5W0eV5B71zY21nV87iwEq2dERERE9HQJHISSd6IrLqDtJiwP5nIN7l0tXyij+lFDdMFd0aDsFiBfiyBtm8THaAE8OV9if+rjQAN44QqKKwBqBSSM8r2mBz1ugdqM2LtYG7MhXzXGMAaUkYvWrttf7EKBhKJsbxkX44OVw9mMjSUiIiIimobpBaHNB6hrAFLn9e6x86iFJ2ObYS4gOdXxY3pX3BHsXS2FuOiC+ysxpq64Ami1G5bJhowWQHPXVHd6q6t5zKT951e2sYWe6C2Ch85ujqJbZkj0MaHSirkpXkJ2o4HeLNYhNbpBL9u6bFu6WJtnQ56Qreu26OJrnpBIqKj6+OAN83jMHnqu43MnV/nc/hJkVvVsUsY479m12BMRERGRdxMEoaZxl80H+PjyHRzNcRfZs0lj4iS3MatmxvixbajjYjsvTOM2HQ/kH/XEpDG2Lpy5WyVUHpv/uD6bLjTsf2362BgvuJtA+lPzEhhiiQxzwHrhOTExzOVbFTTduvYGogcdUHDDWKbjcQWld41W3nAY4xCv/sNtNPqTI1VRnrAFcsB0LB5X+pNBObsK6xMJHRZw81MV24curZWBmGdTFl1xR3XxTT13of9d84sScr+b7IWAs7uzWA7HbTbioPXMyxItgTVVbE99nDcRERERBRU4CK3Lbw3W20y8J1pBs2/jlaDP3KY1Pa9H3kMdAJT3Rq/n6cPZRAwAcFR4Dx+OWSc0s6HPSDqNKHTMuM0Lz9lnWgXqtQLka9auu4ldzWUiGjF+FAC0XXnQFfX1BORdaytV/OXbemuqjMQ1+3g9lzUgPRJdRU1dja/JolVyLQvHEGF9XUnLGMGa3P/Mud6kN6IMFcjXEo59m3SNTABQfmM6Fvr+YU11XxpEfzGg7BagubRWBhV/+Sqy0LCv7kIZ0sVXlIM1v4nfFKC4dZn2cyz0fRp0d9aXw7G0PAvB6pnHJVoCaqqiO3x2w/0cJCIiIqJwBQ5CLaTnkSq+jTfL89kKCojlWt5U08MnTzLLXIFY3/7mxGsrus9iOiDGEQLa13qH1mfzuP1GFpJl4htJXyKk7Oza+UJZHztq74p627YsSRz5X4mlMrwUgWfP5lF9ozjI74qE7BsNVOWkbcPZEQGaYC23ydbIjP/gKoprkjXNlXHdfPWJhDC6tdI/ka5SU4Z28Y2/XEVjwxz86/XmDfGiILgMyteLyPbLQUJ2Q0XjV4NyHwhSz2a5REsT6rYGSEVccSs0IiIiIgrdM1999dWf7R8CQCwmWg7tnpTewYeFh0ipd4O3ei6CSg4RWYFUbKCan+5jMU1TE6V3EygcZqFeL1uWiQGaKN1KoFADsm/03FsuZ6ByKwK5loXq9tKAQtUspZEoaMiqPZR5MIiIiIjmwnRaQk+jTBlqFtAKl1Gadv9AmqLBDL32qaSaj7/Efg0AJCSfs3w1I8ZYSUDauMIA9KQ1S7hc0ICsygCUiIiIaI4wCB0hU1aRhYZCIocKA9E5ZazZqaBgH0erL9MiObomT1l/fKUxVrKI2y5jNilEzQpyiQI0qYgGI1AiIiKiucIgdKQMyj0VWQmY8kA1mhrTGETbeFBpJYviGw1UQwsI9TGYJ7IMCVnEAUhZqFUeCyIiIqJ543tMKBEREREREVFQbAklIiIiIiKi0DAIJSIiIiIiotAwCCUiIiIiIqLQMAglohmrIJfOoWL/mOZSs5RGJBJBOneaj9ioOjnqO6LpejrOt/FYDn7wGkWnw4RB6CMclD5AOfIqrpt+Pp6nM6NZQjoSQZqLffpQQS4SQcT8syA3hoPSO7geeRXl3Cd4Yv+SpqvygYfzvYlSWoaiAbZlXGdocetvYJUcIpEIJt/NJtRtDQCgKbun9CFnTJ1sAtAUyJETeshbtHtW8xPHM8D1yAc4sG83Qwc5/e+mg1/3+2nkHti/mqGn4XzzYrHKwQiYBz/pydeT1897T/etk75GEU3JREHoQe4tbBeqOLJ/QXQiHmC/8BAAcKT8Mw4mvSksqCeld1AO+SFwmEougYImodgoI8O1UhZAHPKWBACQshsYtcJqs5RGegEfgsbWyXgG5UYREhTIwx4Ciabi9J9v3pzmcmji65tp/P7lCH73jyX8q/3rIHiNolMieBDa/AS/V8Q/zxXfxpu9u7im/7wy6gpCCyCDcq+HXq+HXk9F1v713HoRyeLzAIBz2b/DqtsD5lPgyf7D+XgxVMlBVgCpeBv5UI/Fotbf+RDPV9Hr9VAtj76Qf7mvQbRdLBCvdTKex+2iBCjyFFqXT7n4z5DT7/1v6tdf8u5Un28+LF45ZKH27zNV5/XkUASfv3s5gT9+pqFr+9ohnkfVz32L1yg6BYIHoV+29Afd55GSX8RZ+/dEJ2A1/2tc691Frvwz1skT1UTphgJIRdx23J2JToK/OhnPX0UWgHKj5Nprl4homK/viOATkPDX/1TEefsGU8BrFC264EGoV80HqObesYwZKac/cHaV1MeXiTEdj3CQE2P7ZjW+r5Ib9Lm3ZqWJSiln6pufRtq+jdF3P+1+4ou0pzBGYJQgeWhWUMqlLeMO0ukcKm4JeGSMjXC8idPHqDnHNXkoX7+MuuNhTJIx7qdceoQnFfN45nfwcemRfXOfnGOky7lPnHUdENt6OS/wAB/r+QUeoTrsvDCVwbYCAFVs28pEpGFmz+87KOceDDnX9G3TpjTlqn2jgcpNFDRA2pIx/HFfjN0UdaSJUm4wziadc6vXM6g7gL90fZ1D9nTFfnnbdkQejG3Tg3Qjst4tJTCP42j18zoSiUD8SQWy7f8FOuf161muAlSMepAuoWmqF84JS+zpjipfr3XSLIMrRQnQCrhp/9MnYOHvWbonlU/wcXpwHTOufVXz3+6PN3+EqnHNSX+CJ80H+Fj/vew2djN1Hqh80t9m+HXdef0V100nT/n1bRHPN0Fsn3be8wNZ3HIY57l/U8TSSyr+/tMqEhcT9q+nxPs1arrHjWg6/AWh5gkI+g+gD/FZwvRgap4YoPkJyon38Jli7R54pFWxnXjHfUITrYU/5N7CtiLG9gHAkXIHH7rdcAJqltLiQpZV0StnLA8klVwCckExdffQoCkyEuabd1zGlgRA24Zqv+6hgl0FQPaqs3vGNHnJg7QFuZ+HJkqXZRQUa1cWTVMgJ8IbX+GpfENwVHgLH8rm8cwPUS+85V4nPXIbI32k3MH2TXvdfYRqWtRxt/PC9eFm/wE+jryFz6Z4Xjjz+xBHynv40DG5x6PBth77QVVEBcTWoAIOt68iF0mgoJhqhVJAwna3nFXd8Z6uv3PIma7YL9nlacG57fA89Lf1eCxOmvd9A+o30pCNeqBt42bucr9eaMoNS5DkTHd4+cJvndTF5S1IAJRd9zTDciruWRDPBDvyHdS1wXUM+rXvM5drX11+C58ZO6bdwYeJ91DXfz9S3nNer5X38KF8p7+NcV23voAT11L79deVz/zOA0/1QefnfBMq2FU0ANrct77Nthw8uJjHj69k8Ff2z6fM2zVqcY4bPV38BaG+PEL18h39Ip/GVkMfM9p4GylA3Bxu2B92AaCKugKk1PetY0yUmmvLll/NUhqJggZJv5lb6OOFkFXR6PfNb0DN2t80xZG/mgWgYdt+R6/sQgGQ3Rg9rmFyHvJwNW9945/Koqg29P0y9g0AFIy8fk2L5/L1KfOL/nhkX2OSpJ/r9dKok0B9N2hQ9wD7CoDszy3jo99Uf45U0rrlk9J/FA9W/b9/F9d672Mr+7x4qeMIWkXAWcfzeEk/L/rnkXFemMpgKwtxzpnyca13F7m8qUNQ5QPx5j9rHs+t50G7gz+Yj0XlY7GtJb938aaaNm1k1kSjbn8JMpymFKBAGtTNhj4exjxL4qzqjt90PZ9DxoN90ZRuDw21iKytPvjKQ+Wm2FYqQm2Y0x07gmgMj+NoM+X+3xR/0jwuSvxUzZGMn30DoGkapGIDPVVc2xRFQ1btoVGUAGjY/7KfsPfyBXzXyT4jeKs3TuzB7STuWf1W12E/Lg/yXp3L/hxbDf061ruLa42f4xwgnglUZ6tlSn3fdF1/Hi81jGsccNRwbj+4Tr2Pl8RcNzgqfNx/fjjIvYc6IIYSGdfT/nXTyW9+vVm0882QwUZWAiAhe9Vrj4JRFrUc5oina9S0jxvRdPgLQk0TEFzrP4CKm0L/Al3Vx+I1H/TfRp4rvjKYJCb+Il4x/q/mPoPpueL7eCUjHpjPJmL6py08cdnWD/PN3G3wu3hTnoVqedMcR6as97s3P2VmNpAFoG2rlhO/sivGHF1xJj99o/KALKxxcBz5chl5y3SQcWQ2hl72p85X+c5cGlvVn+n18kUkp1UMyj/joDJ4MDmb+Rleyb9o2uARDrYf2v4+AJzHavnfiYcm1xcuaWz1fo20fl4gPlmeD3arIs2yeTz3eayWN5GyBOOPUL2hb2vJL0aMuf0S+xqAVMLjzS4LtVcd1M14BvZqOau64y/dAOeQsg3V1D80nsmjnLdeHLznQR/TiCzUat4ys6u3cg6f933T2cdr6tfSeMJ4TWTjoXwFv3XSEEciBUDbx0k8h566e1b8Z3il/DOsxk0vxOIvImUEi/vtwecQAeWPjGseAGQ3kR51ACXzdeo80leN5xTj+UF/WQjgXPHf9Z8zhvKb3xPmqz4gwPkGIFOuoterouw6tfR8CKMc5oe3a9QiHDd6+vgLQv2wTFxku9BfiPXfJB45zhrb9v0Wnl+PvvmMs30ZiYIGDLmZ99+Uu4w1iERkKLC/aTL64pu6NzVLuKH4GXM0Kf1h3dLFymghcJnmvFlBLm1b32risWRe+S3fGZNiI4KoIMTLlXN4iM/kt/SxSG7jQduiS2t2Dav2r3AeZ1Nwf+Hisv1q+S6u9X7h+Hy8R3hSh+u40esRvZWg/sjaS2Hq5WXiUlcz5R56vbL++azqToB0PZ9DGZTVLCRoKMgJMRan5DZeMUAepCQumH+fW/73zX7ttP8+4LV8F9gJ3rPE+Tfip2rrZeODGNdpHo9p6nJrlzpvue6cSy6bfnNju07ZnzWaj/pdcM8lxgSgOl/5PVF+64PzuNt/X0wsB6JFMbsgdN5sXUVRAqDcmNrAbNEXf9C9qaluQ0MWV2c+sGYgc6VoyYPoWiWhaH+t3SwhnZChLMpAskWU+QVyvfdFF1zpIeqFO9hODJlAY2HoQTP5P4cyZVR7DdFFVNKgFAqQE8Enuui35pEw9fKdM6fxnlX5QB/X6WE85jxYtPwSES2Q2QWh9jeQJk/Uf+63kp4L7ZX+BeSrqnhYkd1mAdS7NEjWMUYj3/7qffFF96Ym1G3NtVVnpix5MLpWOcc9VW4WoAGQiuYxEj19DMT0VXbFqJuBAOW7kM6LLrjVwZikI2XHOYGFa5dbo4UyhrMTF4RLa2qf3uIqWcevWn6MbvVYxjkJgNZyjN8WXXrdXEBy7BgVP2ZVd/ylG+wciosuotUeer0GipJ9ogs/edDL1aXbleh+dhLqaAw9yH72Lahx5WsIWieNsaQn0fp8cves2YwJNbr2i2uPeTy8MXZz2rw/axjXXutnYed3vJM+3+YFy2HgJK9RRJOZXRBqGjdRl01LTzQf4A8FfaY56e8sY8xmL4NyVUUWGgoJ5039QlIMWr+cq6A59AJnpk/2oBVws6RiW3NpgbQxpgGf3tv6OGTxVAG1KbrijupKkkpc6H/XrJSQuzHZw6sxZkLZNR5KmqjkTDPNmfgv3wXS/AQf5z7BQdM8UcV5rG6JyYYGL2KMsZxVbFuWQ3mEg5w+YZFL11s/zibF36yrw5Zb0bfR7mAn92BEsApTF+Eqfm/MMNl8gGp6+JIGgzEqbjNxBjOruhMkXU/nULOEXK6EiiVR/Vy1TXThPQ96uULBDePi1ayglDaWLRhm8uUG3FwQETG2VfuSIQPe980nH+VrfBeoTjZVbHsYSzr967rh5O9ZM5GC/qLtEQ6Midqm7EnlE+zYnzXMzyX9iRHFbOUj8xBCfsc50fPN5KSX+piXcpgbvq5RJ3fciNzMLgjVJwUQraFVbBvLuCQGM9O9dNtobQlTBuWG6MJasC2rEM/f1t+ky0gknG9/XU9efbIHpVCA5tICaWVMkz3sbX0wYsFiDfs3d6EM6VolLtyAIif6+5OQC3CJFWFek6s/hkKR+59Z1uPS9x9KAYlIBJFIQgSgkvNVcaDy9eBJabCG24fGQ4d5vKNjyZHZOFLuYDvxlmWMpchPGknTc95q2ZjZ9j18aBpntK08FBNrlM0TGflnTOZ1VDCnb10n9GxeTIJ0pLyHD81LLOk/5qUPVq+I2SCPCvq+Jd7DZxpwLmuc305ish6XmTgD8lV3fNRfP+n6OocA1JUC5MRg20gkIsb42SYN85MH0f0e0Ap6uglZrH2ZzcJ5xumaKrb71x3TjMNmPsrMYLyA0gqyfu47t/Wzb355LV9DkDopuquOm+18Ntf1gfDvWX7GhHq//hovtAAod/Rr01vY7v+fKdCMdF/Fh7IxO7/5WcN4MWjeVgSg5yT7zOozzO8Cnm/ClJf6WNhy8OB+Dr97OaL/yHgEAH8q4L8an/1jCf9q/z8B+LtGTem4EU3JDINQfYxc422kLBf35/UpzyecaGgS8TyqahaAAjltvqnHka+KabyHPtA5DGbyHNUCKYjJNKZP5EFRFNeuVQAQz1fRKJofVCVIWRUNVTzUBicekLL9RCRkiyoaVTELnVWQ8l0Q8Z9hU02Lrqt9z+Nc9m286Zg86EW80ngbL2Xt58XbeLNq3zaAzC/wpiMvdueRroolWYYFkn3xnyGn/nyQniSWNshdMWaudpG5Ih4CCjfdgx7fZlV3vKfr6xyK53Fbzdrexejb9ydcMnjPg7h2FQfpShKyagPVK67rkghxGVv6CSoNuT4Ekimj4dhHOx/75oev8tX5rpN6d9WxM8fO6rpucmL3rOlaLRtLURmeR6r4tr+ltVyc3fg5UpL9WqZfU23PGmfzv8abRfMLNP16dtV5PZtVfgM5yfOtbw6W+piLcpgX3q9RJ37ciFw889VXX/3Z/iEAxGLOCzK5q+QikJUs1GEPPybNSg6XZQUavG1PtLAqOURkBVKxYV3Djeik+KiTxvIoWbUH18lpTRbtuu7nnkVEVuLakJrh+VNBLiJDcVsb2MTPNYpoHs22JfTUM8Y/AlLxysiLkTHRQ0JWRNcJdVYXL6I5kSlDzQJa4fIMuigSBeC1TjZLuKwvjzLq4W7xruve71lENMc8XqOI5hmD0CD64xiM8Y+2hY5HkKQs1AbfWtHTIVM2JlXJna41HGlhja2TzQpyiQI0qYiGxwv13F/XJ7hnEZEb8zqkzknDfGuWkLaPjx0mwDWKaB4xCJ2IPgbJw3TfxkQP1WoZmXEbE50aGZR7qhgzzHpPc2FMnYwDkLJQT+V13fs9i4jmlI9rFNE845hQIiIiIiIiCg1bQomIiIiIiCg0DEKJiIiIiIgoNAxCiYiIiIiIKDQMQqfgSekdXI+8inLugf2rE1BBzrKYOS0+HlMiIiIiOj0YhE7sEQ62HwIAjpQaDuxfh6qJUlqGogGwTxeuT/+dnnge8adJBbn+lOn6T+4EQsEmAE2BHGEgSkRERESLj0HoxM5jdet5AMC57BpW7V8H9KT0DsqRD3wFtZVcAgVNQrGxKMsFkCfxDMqNIiQokE8iCCYiIiIimiIGoVNwNv9rXOvdRa78ov2rwJ7sP8SR/cNRKjnICiAVb4NrkE9LBuWeWAew11ORtX8dpnget4sSoMhgHEpEREREi4xB6KnQROmGAkhF3GYEemrF81eRBaDcKDl6WxMRERERLYpTH4SKSYPeQbUJPCl9gHLkVVyPvIrr6Q9QdTzJP8DHkVdRLj0C8AjVnJhwSEw69AmeuGxrfH898iquD5mYaJCHRzgYlYfKB/20thUAqGLb9jdE3mwqN1HQAGlLht8QtJIbjHW0FkcTlVIO6f54yDTS9m30caaRtHtQJNJOY6bDUIPkoVlBKZc27VsE6XQOFbcEPGqW0ohEIs5WykpOpO8oBA/l65DBlaIEaAXctP8dIiIiIqIFceqDUEP98qv4sFAddHHVqvgsIYJTh/0H+DjyFj5TxIRDAHCk3MGHQ4JMbx6ifvktbDvy4G/cp5vKrgJAwpbsLwRtltKQFQBZFb1yxhLAVnIJyAUFWv8TDZoiI2EO9uIytiQA2jZURzlWsKsAyF6dbfdgL3mQtjAomiZKl2UUFM20b4CmKZAT4U3846l8XcTlLUgAlN2wckpERERENF1PSRD6EEcacC77Nt7s3cW13vvYKj4vAkPV2bJ4pNxBHc/jJfV9XOvdxbXG20gBgGX22xfxSu+u+L6nfz+GIw9ZAKhi34gnMr/Q07urf5fGVv9viJ9c/rwlTaCJRt0eaI3XLKWRKGiQ9ADUQh9fiqyKRn9MZANq1t4KF0f+ahaAhm17BFjZhQIgu2FLe+o85OFq3tpCnMqiqDb0/TL2DQAUhBLbeS5fF0bQXW+MDFaJiIiIiObVUxKEAueK7yNXfhFnATGjbX4TKQBH2w9s3WyhB3+/RjqjB3zxF5Gcxqw02betedhIAwCOGs5A2Lsvsa8BSCU8d8U1B6BVewDab1nNQrW0jsaRKetjEs2RWmYDWQDatmoJiiq7YozqFWfy0zcqD8jCGgfHkS+XkbdMHxxHZmMaB9gbX+XrEEciBUDbx5f2r4iIiIiIFsDTE4Qm7C2Iyzgn2T4yuCy1slq+i2u9Xzg+9yO1Mb3ZcwPbvoxEQQOGBKD9llUokO1rZEZkKLC3whnjFE3dYZsl3FCCjVENJoMNEYWauuQa3YE34NjLZgW5tBjD2f+RFftWM+K3fImIiIiITpenJggl3dZVFCUAyg3nJDoBiXGKg+6wTXUbGrK4OtPBoFaZK0VLHkRXXAlFe1Nss4R0QoaimUeEEhERERFRWJ7eILT5AHUNQOq83j12HrXwZGyT2AUkfY0RvIB8VUVW0qDIbjPX6t09paJpvKLtp2obY6mPUxTdYZtQtzX3FshZsuTB6A7sHCdbuVmABkAqmsdj9tATg0KnrrJbt30SoHwtjDHASVywf0VEREREtACeoiDUNO6y+QAfX76Do3npIuvibNKYOMltzKqZMUbQbXbYYTIoV1VkoaGQcAaiF5JigpzLuQqantLUJwfSCrhZUrGtubRA2lRyojtselrNsYhDFlEo1KboijuqO3AqcaH/XbNSQu7GZN1x4wkxNZWya8xu20Qll4asOFtc/ZevSVPFts8xwERERERE8+SpCULr8luD9TYT74lW0OzbeGV0rDScaU3P65H3IIb5vTd6PU8fziZiAICjwnv4cMw6oWJSHZfZYUfKoNwQXVgLtqVJ4vnbKEoQS4Yk7OMWXdbCxGByIKVQgObSAmlVwa4enGnKDUcQHFQ8fxVZaNi/uQtlSHfgC0kxEFiRE/39ScgFuMSK/TU+LeM1Fbn/mWXtT33/oRSQiEQQiSREACo5Bx4HKl+d6OocxqzDRERERESz8dQEoRbS80gV38ab5flsBQXEci1vqunhkyeZZa6IoKZw0986l/E8qmpWTJKTNgeiceSrYskQL39e0CcHwugWSCGD8ky6v4o8KIoytDtwPF9Fo5g17ZcEKauioRZ97KsbEdRn+4lIyBZVNKpixlurIOULwOjqHNasw0REREREM/DMV1999Wf7hwAQi4mWuEX3pPQOPiw8REq9G7zVcxFUcojICqRiA1WXFsAwVHIRyEoWaq/sGgCaNSs5XJYVaPC2PQ2W1smqPbhObExEREREtACezpbQ0yhThpoFtMLlqXVv9c4Y/whIxSsjA8pKzugCq4hupSoDUE+aJVzWl9ZhAEpEREREi4xB6CmSKRuTDeVQCSMQ7Y+ZNMY/FnHbYyusJGWhNtii50mzglyiAE0qosECIyIiIqIFxyD0VMmg3FPFuERvseCU6OMqRy4tImTKYhmSarWMzLiNSYgDkLJQPZQvEREREdG8O/VjQomIiIiIiGh+sCWUiIiIiIiIQsMglIiIiIiIiELDIJSIiIiIiIhCwyCUiIiIiIiIQsMglIiIiIiIiELDIJSIiIiIiIhCwyCUiIiIiIiIQsMglIiIiIiIiELDIJSIiIiIiIhCwyCUiIiIiIiIQsMglIiIiIiIiELDIJSIiIiIiIhCwyCUiIiIiIiIQsMglIiIiIiIiELDIJSIiIiIiIhCwyCUiIiIiIiIQsMglIiIiIiIiELDIJSIiIiIiIhCwyCUiIiIiIiIQsMglIiIiIiIiELDIJSIiIiIiIhCwyCUiIiIiIiIQsMglIiIiIiIiELDIJSIiIiIiIhCwyCUiIiIiIiIQsMglIiIiIiIiELDIJSIPOse7GFnZwd7tbb9KyIiIiIiTxiEhsB4cD+dz+1t1HZ2sGP+WcQdbddO8THyYWQ5dNFudQAAndYhXDchIiIiIhojcBDaPdjDzt4Buvrv7dqO5fdgumjX9rBnCmj29mpodydL1a/uwR72dmp8yCayWMJyLAoAiMZWsGz/moiIiIjIg8BB6HGnA5xZwhIAoIvuMUy/B9FGbecetFYHoq1F6HRa0O7thxoQHneseaBRlrG2uYnNzU1sbkqI2b+mU2Vp9RI2NzdxaY0hKBEREREFEzAIFUFnNHpG//0YnQmjtnZNQwtANCZhvR/UbGJzXUJKb30hIiIiIiKixfbMV1999Wf7hwAQi7m1abVR2xHB4kgxCZs+W0ratR1orShS65ew6qk5tYt27T72TS2n0WgMyYtrWLb8f5Hn49Q6Lq0CB7X7qOvj2qKxFC6urYrW23YNO9roPYum1nHJW+Ysugd7uFcHUuuXsNyu4X69JfIcjSF1cW2wv90D7N2roxNNYf2Sni8T/2WkC5Jut42D/X20xpavmV4/hhx/UQ4dxKRNWL7Wy95Zvl20D/axb5QXoojGkri4tuzYB3/0dFstx8sTR9585cG+rahjyeSqe5npZWzURyCKWOoi1hwH156uex4G9ewiltqm7e31bPA/PJaDy3k/8hj7zEPtPrR+GZgFqOtERERENPcCtoTOSgf1/baHcaVdHOwN67q7hwO3BDqiu+/ggR/otOq45z4Dy0y07u/hnilAQaeFujm/S8uIRcXnbcc+tHHYAhBL+n8o95JuNGYKlLo4uK+h7lq+4Y2VbdfuQTOXFzrotDTcm2jscXeQrlvcY+MnD85tRR3T9l1KrHuAvXuijAc6aNXvO+qvM93heQA6aN23bd9poe44bv7KwR/veTDOYyIiIiJ6ekR++ctf/gf7hwAQjbp1gT2DlWQSyWQU3f1DRKVN/ORiEsnYd9BuHuGc8fuK0U3XuzMrUXTbhzg+OkRzv43ud/4C0bNn8F37hgC6B3+A1voGiKYg/fhHuPj9JJLJGKLdJzg87uDo26gpD1209w9xdHyEY0SRkn6MH138PpKxKLrNQxwfP4NocgVnzqwgmUwimUwi2t3H4XEM0uZPcFH/LJlMIn7WLTfjffvkT2gedfDNN98gGpPw459cxPeTMUS/8wSHRx1885cxPe3v4uxfdLF/eGT6TNf+F9w/PEbsby7Cf/F6SPcHP8L3+ul+iydPvsW5v5FEWSWN8m3i8PgYz0STQ/Igyvo4GnOtA6IcvkE0Zvv/3Tb2D4/xF+f+90He2jX8l/92DMQkrP/kIr7fz8MTHB618O3QPIzR/kKka6k7ScSiXTQPj61585WHNv7l/iGOYyms/+RH+rZJxKLfwbfPfBcrZy07jIM/aGh9I7qfi/qgp/2dY3x7ZgX9Q+QjD0b5fmNJd8hx81MO/fN+cO6PO8Ze8/D7/yHysP5TvcyM8xIxSJs/wveCnXJERERENMeCtYR2uzhGFIMhoR10zL8Hsoy1S+uQUjFE0UGrruHezg72age21jtjmYgYpEvmbo5LWF67iFQUgOvyETFIm5ewavyHpWWsuPU4nqFoah2X+l0ol7C8mkQMQKdlav1dXnF+BqB92AKiKSSdPSC9GZUuYlixpLuE1bW1QVnpny2HWGBGviRLl9MlLK+JMmsdOo/weF0c7OvpWuoOXLrWBsxDq4W2qcIuLa9ibdV20LptiCosmeoD9Dph7bIaKA+WdAfH7bg/y7S/cghkbB6AbvdYbJo0dRFfWkYyFQVwjJAnxSYiIiKikPgKQo31Lnfu1dFBB/V7+lIqWgvo/z6kO6wn4iH80uYm1tclxKJ6d0ZLF1t9EiTXJSKWsHRGbON4gHXZfnltE5uba47PZ+XMkv0R/wycDc76Q7i562z3APstIBpzG4folR50W7rkGl18nWWDbhu1Pf14Gz9jxsxOjz7bMlrQ7GuQGmMTj7suXVE9ikYx/n2J3zwsY00SL1Dq2j3s7OyhdmB/gaI7Ft2cY9bI34XfPAjj09V5KodgvORhSZysaB2auhV329ivdwCcgeN0ISIiIqJTwVcQGqalpWWsXdrEeioqAly3cXWn1NKy3hqsRzDddgsdxJD0PRjUajmZsqSL9iFaiCJlb17Vxyu2pj9Y8IRNPovzSMtruLS5jnUphVi0g1a9Du3eDvZs446NFsCTM+Ny8Go5qfdcqOOeEVzf04NrtxcjRERERHQq+ApCjTUCRWAYg6QvoyLFIMZ1bW5ic3O6s1ku6V1WHS0+rl1ujZajabSiuLSmTpvRLdO+vqo+kZDoOqt3P57GQ7klXaOLr3lCIqG9X0cHQDRlWy5Hmk133PahPSjTW7T7dcrlx2WW3/H0ludOB/a/KLq9mgXNw5LogntpE5ub6xCN2vuW3gFGC6C5a6q7oHkYx085zFB7H/WOffx5FLHUuuvMu0RERER0OvgKQg3HlmYUI/CbRBu1vRoO2rZAs9tFu7YvWkb6gZoxlrMFrWYe3yiWeqgP7arr3RnxhI5W28tMvX6YUuu2cXBfBHvOrotLWE3GgE4d+wdttDourZWBLGFZRKFod0VX3FFdfM8snel/120foLY/WYDi7H7ZRbu25zo76ploFOjUcb/WnuLLAKO7dgv7RlTYbeNgbwduPY195aF7gFrtAG3Lhnp5o4OO+RwxxufW72HvwFaHD2qWgNVXHjzzVw6zYox3TV68iPV1I7C+5LJEDRERERGdJj7XCRXatR1ox8aak2KZhfoZ93UDvXFZh9AiBmndvD7liO2jMUiXzOM8R69d6WrImqHOdSy9MdbHdDU0X6Z9HLK+ZzAiXcRiaLUAyWVM7Mj8wraG5JCyMljLbMhxi0aBTse2rV6vhmTDuZ6nR8aaqbaPo7EY0GrhjCVdH3kYkq4Qc5bz0HKzr43pPQ++1mEdkl/XchiaV8Gcrp88jKpn49ekJSIiIqJFFaAl1N7yOY3xZctYW5eQikVhmacnGkU0JmHdEoDCsv2Avq0lAA1oeQ3rUsxl0qBglpaTYt8s2R3X7XAwe++o1kr/RLqtVmtoi/HS6iWsp2KmY6GXrZSyHh/flrG2nhJrlgJ610sJ65f0LtcWS1i9tA7JXicmtbSKS1JqcCyiUcSkdVxKuv0VH3lYWsVFR53Ry80egMKoYynEHF1RL9q6s/vIgx++ymE2+l3t9fcQZmGvSUtERERE4QnUEkrhaNd2oLVcWtGIFp7Rwmvv5aB/V7uHemuCFm8iIiIimlsBWkJp9oyxkkA0lWQASqfQoAeFfZGZbvcYHdEPfcK1h4mIiIhoHrEldJ7Yx95NdSwo0TwZPdYVtrGmRERERHR6sCV0LhnjWxmA0mllGutqGw8ajcaQkhiAEhEREZ1WbAklIiIiIiKi0LAllIiIiIiIiELDIJSIiIiIiIhCwyCUiIiIiIiIQjOXQeiT0ju4HnkV5dwD+1cnoIJcOoeK/WNaeM1P04i8HkH6Fo8uzQKvHURERERu5jAIfYSD7YcAgCOlhgP716FqopSWoWgAmvbvgMqtCCKvRxDRgxj7732PS0i/HkHuC+vHNGNf5BAZWu5NqH/UAABabXduAwUjUHbfh0VXQe51/Zwxfuznzpyxn+P23y2aADQFcoSBKBEREZHZHAah57G69TwA4Fx2Dav2rwN6UnoH5cgHvoLaSi6Bgiah2CgjE7d/C1x4TrJ/BACQnrtg/eBZGVsrgPK7klssG5DLA/zrEaTfzaH0xfT+yukVh/xDcfyktQ1k7F8TufB8zgNAPINyowgJCuQcw1AiIiIiwxwGocDZ/K9xrXcXufKL9q8Ce7L/EEf2D0ep5CArgFS8jbxLAGpmPIAOe0AF4sj/NAscbkN9bP9uurRDBYXfJBB5d5oB7+kUf7mK3kc9VF9jCHoyMih/1EPvox56H6nI2r+eY+PPeV08j9tFCVBkMA4lIiIiEuYyCD15TZRuKIBUxO1xEahXL2wgCw0FdcpPoitFNPoP8g003shCAoDDAi5/yjCU6KTF81eRBaDc4IshIiIiIgQJQsWkQe+g2gSelD5AOfIqrkdexfX0B6g6nrAe4OPIqyiXHgF4hGpOTDgkJh36BE9ctjW+vx55FdeHTEw0yMMjHIzKQ+WDflrbCgBUsW37GyJvNpWbKGiAtCVjVAgafy7l+nvqObf/lcGVDQkYM/5QjAFMo/S4icqnOaSNrrbv5lAa24oaR/yFMqrXi5AAaLs3bX/LlubraaRvVYY8GNu3jSB9q4TKsDw8rqB0S4xfNNLOuQbB9nTd8+C/HPTt3jV1T/6NYt/IvRuz23i+oHmwlIH5Jz3k/3ghIfkc0ByVB33c8bAWcDF2MUAegqSr1wVL3Xk3N7zueDB0bKw+7jftqGve6pmZOHZp598w8XfOGzK4UpQArYCb7lWNiIiI6KniOwg11C+/ig8L1UEXV62KzxIiOHXYf4CPI2/hM0VMOAQAR8odfDgkyPTmIeqX38K2Iw/+xn26qewqACRsyaMeLAG8UBbdOV/Wt9N/L79g31CI/2ALEhTccDww22nY/m0C8q4CMXUOgEMFhWseJzjRx6ACdTRMD/6VW7Y0oUGryUi4BBjObQGtVoDs1pL7uIT0NRmFmmVrKLuXHUGPM93hefBeDs1BuoeWL6bAex5K7yYgW8pgerZ/m0bCkQdT8Gccc9cu3xXs1gCsXUX+Wft3Y3hJd2ULcj/dJkq/FXXBUhsOFciOMpsdf/UM+r5oot6OGrvt85w3xOUtSACU3bBKgIiIiGh+BQxCH+JIA85l38abvbu41nsfW8XnRWCoOlsWj5Q7qON5vKS+j2u9u7jWeBspALDMfvsiXundFd/39O/HcOQhCwBV7BvPeZlf6Ond1b9LY6v/N8RPLn/ekibQRKMOQNrCuBjUt2fzuLoGaH9Uhz/k6rRDQFpT9a62DahrAKBgd0QrzUAciWUA0LD/tf7RFznINQD9NI10JeCwgJuWdI2gxdzVt4fGG0VknzNvBz3oKECDOb962hu2o+grD4Kncvjipkh3pQj1ujm/bqMM/Y9D9JqHwqGte/R1I/0s1I+q/gPAPg3aoWbNw4YkAuTPjZqkjzu2fKb7YhcKgOwPgox99ZDuT/PWHgPLWRTfaPSPw9Aym5UA9QzIYGNNAiAh+9PRPSACicvYkgDUG2PPfSIiIqLTLmAQCpwrvo9c+UWcBcSMtvlNpAAcbT+wdbOFHvz9GumMHvDFX0TSy9P/ONm3rXnYSAMAjhrOQNi7L7GvAUglpv8gCiDzg+yIB2GTNRXV1zJ6HuLi/wGof+3tEdY+YUrlc0UEQ/00IdJ9TR+v9rlLC01tG6pppt34C3mUX7YFMo9VbB/a8wuR9stlS+AVKA9jy6GJ0u/0dH+VR8b096Z2/MbmAWh+XQfsAdmzehdsW4t0ENJGw5qHl0WZWV5ovLDh/Mwo95UiroxprRtqVLrIYsOSbhz518rIv2Au/UGZhSFQPQOQea2K3kdVlC15n5Y4EikA2j6+tH9FRERE9JQJHoQm7C2Iyzg3bKJIl6VWVst3ca33C8fnfqQ2pjd7bmheuILiyvAHYUOwVquBL782d4ZsotEGAAWyY6yiDAUA2uYWmgzKb2QhQRMz7b6eRu7TIeNBv96H5im/fvMgjE9Xt5KEyyIZU+ElD8bYQOVzU1fOxxXc3NUApJAI3AoqOMccXkByxfaRMe7Y3HX2cQk3aoD0w0la9zLYWLN3yTVay12Wt3lcQe5d29hY1/G5sxCsnhERERFReAIHoRSUvj5l7YZjvOT0GA/iYkKbQF4oo/pRQ3TBXdGg7BYgX4sgbZvEx2gBPDlfYn/q40AD0F8uoFZAwgh6rulBj1ugNiNi3PGg62zz821oyOKqMYYxoIxctKQruuJKKMr2lnExPlg5nM3YWCIiIiJafNMLQpsPUNcApM7r3WPnUQtPxjaBXEByxmO34i9fRdZtjN209McnGhPG6GNELcu52H5+ZRvXB/H/4i/kUf6VGFNXXAE0W/BstACO7yYcNA/j6C2Ch85ujqJbZkj0MpdWzN0BJGQ3GujNYh1Soxv0sq3buD6RkOg624T6R206QbAlXaOLr3lCIqGi6uODN8zjMXvouY7PnVzlc/tLkFnVs0kZY81n12JPREREtCgmCEJN4y6bD/Dx5Ts4muMusmeTxsRJbmNWzYyxW9tQx8VVgYnujc4lVCalL0uhd300j0+88JyYlOXyrQqa41pgH5eQu1VC5bG5APQWXPNkRzCNF9xNIP2peQkMkRdzwOorD54ZkzCZZh1+XEHp3YiYnCYkxjjEq/9wG43+5EhVlCdsgRwwHYvHlf5kUM6uwvpEQocF3PxUxfahS2tlIPrxP9yG+lh0xR3VxTf13IX+d80vSsj9brIXAs7uzmI5HLfZiIPWMy9LtATWVLE9w7HmRERERIskcBBal98arLeZeE+0gmbfxitBn3dNa3pej7yHOgAo741ez9OHs4kYAOCo8B4+HLNOaGYjK2YDnV0UqndvnMJsoYem7p+vD5alkDYalmUj4i/f1lsyZSSu2cfKOddfrNcKkK8lLNskdjWXiWjE+FEA0HZlW16srVR+8+CVKEsRCBvdYAuHgLSWhWOYsr6upPjRu8vW5P5nzvUmvRETQSmQryUc+zbpGpkAoPzGdCz0/cOa6r40iP5iQNktQHNprQzKaMHfV3ehDOnia0yIZc5v4jcFKG5dpv0cC32fBt2d9eVwLC3PQrB65nGJloCa6rZ4abAR9AJJREREdHoEDkItpOeRKr6NN8vz2QoKiOVa3lTTwydPMstcgVhbftotlSZ698bpPvBKkNbEMiX9dQz74sj/SixTMbYIns3j9htZSJaJbyR9iZCys2vnC2V97Ki9K+pt27IkPvLgx7N5VN8oDvK7IiH7RgNVOWnbcHZEgCZYy22yNTLjP7iK4ppkTXNlXDdffSIhjG6t9E+kq9SUoV184y9X0dgwB/96vXlDvCgILoPy9SKy/XKQkN1Q0fjVoNwHgtSzWS7R0oS6rQFSEVfcCo2IiIjoKfPMV1999Wf7hwAQi4mWQ7snpXfwYeEhUurd4K2ei6CSQ0RWIBUbqOan+0ja90UOkd/UUbw+yRqSdPKaKL2bQOEwC/V62bJMDNBE6VYChRqQfaPn3nI5A5VbEci1LFS3lwYUqmYpjURBQ1btocyDQURERDSlltDTKFOGmgW0wmWUptdUafXCBrLQUFCDtJHR/BjM0Gufzqr5+Evs1zDZTMW+GGMlAWnjCgPQk9Ys4XJBA7IqA1AiIiIiHVtCR6ogF5GhIAu1UUZmRg2itOiMllD75wPSRsOli/QUfZGzrsW5UkTjRGaBpb5mBbmEDEUqolHlsSAiIiIysCV0pAzKPRVZCeATJA1nGoNoGw8qrWRRfGPGAaiFPgaTAejJiwOQslAZgBIRERFZ+G4JJSIiIiIiIgqKLaFEREREcyQSiSASidg/JiI6NRiEEhERERERUWgYhBIREREREVFoGIQS0YxVkEvnwIWIFkOzlEYkEkE6d5qP2Kg6Oeo7oul6Os638VgORPNm9vfCCYPQRzgofYBy5FVcN/18PMsc+9UsIR2JID2zxT5Powpy+niU/s+C3BgOSu/geuRVlHOf4In9S5quygcezvcmSmkZigbYllCdocWtv4FVcohEIph8N5tQtzUAgKbszvTmc3LG1MkmAE2BHJntzXeoRbtnNT9xPANcj3yAA/t2M3SQ0/9uOvh1v59G7oH9qxl6Gs43LxarHIyAefCTnnw9ef28f6ruWzTfQrgXThSEHuTewnahiiP7F0Qn4gH2Cw8BAEfKP+Ng0pvCgnpSegflkB8Ch6nkEihoEopcZ3dBxCFvSQAAKbuBUUtBN0tppGd4c5qVsXUynkG5UYQEBTIfAmmmTv/55s1pLocmvr6Zxu9fjuB3/1jCv9q/ptNPf2E/7mf0C/0TEMK9MHgQ2vwEv1fEP88V38abvbu4pv+8MuoKQgsgg3Kvh16vh15PRdb+9dx6Ecni8wCAc9m/w6rbA+ZT4Mn+w/l4MVTJQVYAqXgb+VCPxaLW3/kQz1fR6/VQLY++kH+5r0G0XSwQr3UynsftogQo8hRal0+5+M+Q0+/9b+rXX/LuVJ9vPixeOWSh9u8zVef15FAEn797OYE/fqaha/vaIZ5HlfctmjczvhcGD0K/bOkPus8jJb+Is/bviU7Aav7XuNa7i1z5Z6yTJ6qJ0g0FkIq47bg7E50Ef3Uynr+KLADlRsm11y4R0TBf3xHBJyDhr/+piPP2DejpkflFv5HuWu99vCQa/QHp5wvRgDfLe2HwINSr5gNUc+9YxoyU0x84u0oazdXpT/AEj3CQE2P7rs9ofF8lN+hzb81KE5VSztQ3P420fRuj737a/YCItKcwRmCUIHloVlDKpS3jDtLpHCpuCXhkjI1wvCHRx6g5xzV5KF+/XLs6uHdHNcb9lEuP8KRiHs/8Dj4uPbJv7pNzjHQ594mzrgNiWy/nBR7gYz2/wCNUh50XpjLYVgCgim1bmYg0zOz5fQfl3IMh55q+bdqUply1bzRQuYmCBkhbMoY/7ouxm6KONFHKDcbZpHNu9XoGdQfwl66vc8iertgvb9uOyIOxbXqQbkTWu6UE5nEcrX5eRyIRiD+pQLb9v0DnvH49y1WAilEP0iU0TfXCOWGJPd1R5eu1TpplcKUoAVoBN+1/+gQs/D1L96TyCT5OD65jxrWvav7b/fHmj1A1rjnpT/Ck+QAf67+X3cZups4DlU/62wy/rjuvv+K66eQpv755PN9M64We/PkmiO3Tznt+IB7LYa6uO94892+KWHpJxd9/WkXiYsL+9Ryawf040HXHQ7rAFPI76n5h33ZYHmbERzw0bDz88DHu9ue+Uc+pBu/3Qr/XB39BqHkCgv4D6EN8lhjsjKUgmp+gnHgPnynW7oFHWhXbiXfc+z9rLfwh9xa2FTG2DwCOlDv40FGQwTVLaXEhy6rolTOWB5JKLgG5oJi6e2jQFBkJ80kUl7ElAdC2oToOXAW7CoDsVWf3jGnykgdpC3I/D02ULssoKNauLJqmQE6EN77CU/mG4KjwFj6UzeOZH6JeeMu9TnrkNkb6SLmD7Zv2uvsI1bSo427nhevDzf4DfBx5C59N8bxw5vchjpT38KFjco9Hg2099oOqiAqIrUEFHG5fRS6SQEEx1QqlgITtKjaruuM9XX/nkDNdsV+yy1Xcue3wPPS39XgsTpr3fQPqN9KQjXqgbeNm7nK/XmjKDcvDijPd4eULv3VSF5e3IAFQdt3TDMupuGdBPBPsyHdQ1wbXMejXvs9crn11+S18ZuyYdgcfJt5DXf/9SHnPeb1W3sOH8p3+NsZ13foCTlxL7ddfVz7zOw881Qedn/NNqGBX0QBoM2kVmabZloMHF/P48ZUM/sr++byb5v3Yy3XH8pzqMV2zwPkdfr9wbjsmD7My9XhIf/Z0e05NuDfcGLzdC/1fH/wFob48QvXyHX1H09hq6E3OjbeRAsTN4Yb9YRcAqqgrQEp93zrGRKmNLCCvmqU0EgUNkn4zt9DHCyGrotHvm9+AmrW/AYgjfzULQMO2/cyq7EIBkN2Ydbu6hzxczVvf+KeyKKoNfb+MfQMABSPr1bR4Ll+fTF0dfI1Jkn6u10ujTgL13aAn9wPsKwCy1u4Vb6o/Rypp3fJJ6T+KB6v+3xddNLayz4uXOo6gVVwk6ngeL+nnRf88Ms4LUxlsZSHOOVM+rvXuIpc3dQiqfCDe/GfN47n1PGh38Afzsah8LLa15Pcu3lTTpo3MmmjUnTeXYTSlAAXSoG429PEw5lkSZ1V3/Kbr+RwyHuyLpnR7aKhFZG31wVceKjfFtlIRasOc7qQjiDyOo82U+39T/EnzuCjxUzVHMn72DYCmaZCKDfRUcW1TFA1ZtYdGUQKgYf/LfsLeyxfwXSf7jIeoesPTDXUWTuKe1W91HfYzwcPYuezPsdXQr2O9u7jW+DnOAeKZQHW2WqbU903X9efxUsO4xgFHDef2g+vUoNvbUeHj/vPDQe491AExlMi4nvavm05+8+uNx/MNmJPzzZDBRlYCICF71WuPglE8lsPcXHdOv+nejz1cd8zPqZ7THfCUXz/3Cx95mOV1UphuPNR/9nR7lkQV26OCW0/3Qv/XB39BqGkCgmv9B1BxU+hfoKv6WLzmg/7byHPFVwaTxMRfxCvG/9XcZzA9V3wfr2TEA/PZREz/tIUnLtv6Yb6Zuw1+F2/Ks1Atb5rjyJT1/tDmp8zMBrIAtG3VckAqu2LM0RVn8tM3Kg/IwhoHx5Evl5G3TAcZR2Zj6GV/6nyV78ylsVX9mV4vX0RyWsWg/DMOKoMHk7OZn+GV/IumDR7hYPuh7e8DwHmslv+deGhyvcCksdX7NdL6eYH4ZHk+2K2KNMvm8dznsVreRMoSjD9C9Ya+rSW/GDHm9kvsawBSCU8XIfFAUR3UzXgG9mo5q7rjL90A55CyDdXU3yeeyaOct14cvOdBH9OILNRq3jKzq7dyDp/3fdPZx2vq19J4wnhNZOOhfAW/ddIQRyIFQNvHSTyHnrp7VvxneKX8M6zGTS/E4i8iZQSL++3B5xAB5Y+Max4AZDeRHnUAJfN16jzSV43nFOP5QX9ZCOBc8d/1nzOG8pvfE+arPiDA+QYgU66i16ui7Dq19HwIoxxOrynfj0ddd2zPqb7S7Ruf3z4P94tgeZid6cVDxrOnuPaZnyV/ZAS39UcuDYMGb/dCv9cHf0GoH5aJi2wX+gux/pvEI8fe2Lbvt/D8evTNZ5zty0gUNGDIzbz/ptxlrEEkIkOB/Q2A0Ufa1M2gWcINxc+Yo0npJ5ulq4PxxsdlmvNmBbm0bX0rMcAiBH7Ld8ak2IggKgjxcuUcHuIz+S19LJJbP/u26NKaXcOq/Sucx9kU3C8wLtuvlu/iWu8Xjs/He4QndbiOG70e0VsJ7BejqZeXiUtdzZR76PXK+uezqjsB0vV8DmVQVrOQoKEgJ8QYiZLb+JMAeZCSuGD+fW753zf7tdP++4DX8l1gJ3jPEuffiJ+qrZeND2Jcp3k8pqnLrV3qvOW6cy65bPrNje06ZX/WaD7qd0M7lxgTgOp85fdE+a0PzuNu/30xsRwmMvX7sdfnVL/p6sbmFz7uF/7yMMvrpDDNeEh/9tSHo5mf+z7UlzaE1hoRhM7G7ILQebN1FUUJgHLD84DZcUQf6UE3g6a6DQ1ZXJ35wJqBzJWiJQ+ii4OEov21drOEdEKGsigDyRZR5hfI9d4XXXClh6gX7mA7MWQCjYUxuHA99fyeQ5kyqr2G6PIjaVAKBciJ4BNd9FvzSJh6+c6Z03jPqnygj+v0MB5zHixafonmkOfn1Fk67feLBTW7INT+BtLkifrP/VbSc6G90r+AfFUVlU+2z8aFQVOzZO0zPvKtht5HWnQzaELd1lzfysyUJQ9G1yrnuKfKzQI0AFLR3M+9p4+BmL7Krhh1MxCgfBfSedEFtzoYk3Sk7DgnsHDtcmu0UMZwduKCcGlN7dNbXG3Tg1t+jG71WMY5yf0NmejS6+YCkmPHDvgxq7rjL91g51BcdPmp9tDrNVCU7BNd+MmDXq4u3WFEF6KTUEdj6EH2s29BjStfQ9A6aYwlPYnW55O7Z81mrJPRtV9ce8zj4ftLFkyZ92cN49pr/Szs/I530ufbvGA5nJwA5evpOTVAur6Nu1/4y8NsrpPTMBh2MKA/y+ldfB3PfL1xPetmcy+cXRBqGjdRl01LTzQf4A9G06/0d5YxZrOXQbmqIgsNhYTzpn4hKQYeX85V0PRUc/RB11oBN0sqtrXxb3aMacCn9/YlDlmc3VCboovDqK4kqcSF/nfNSgm5G46a6osxZkLZNU62Jio500xzJv7Ld4E0P8HHuU9w0DRPVHEeq1tisqHBixhjLKcYBD4I7B7hIKcPGnfpeuvH2aT4m3V12HIr+jbaHezkHowIVmHqIlzF740ZJpsPUE0PX9KgfyF3nREvmFnVnSDpejqHmiXkciVULInq56ptogvvedDLFQpuGBevZgWltLFswTCTLzfg5oKIiLGtDp+63vu++eSjfI3vAtXJpoptD2NJp39dN5z8PWsmUtBftD3CQX+yjOl6UvkEO/ZnDfNzSX9iRDFj5Mg8hJDfcU70fDPxuwTDtM1LOcyD2V13RvNfvt6eU/2n65GP+8XM8jAj4nlPbyhoGs9nxuRrZsbzKHBU+I/42DR3iSe+7oXerw+zC0L1SQFEa2gV28YyLonBzHQv3TZaW8KUQbkhugYUbMsqxPO39TcjMhIJ51sN10LVB10rhQI0x5sdO2P6Yvvbl8mIhWQ17N/chTKka5W4cAOKnOjvT0IuwCVWhHlNrn4/eEXuf2ZZj0vffygFJCIRRCIJEYBKzlfFgcrXgyelwRpK/b7t5vGOjiVHZkNMc+3W1z6NpOk5b7VszGz7Hj40jTPaVh6KiTXK5omM/DMGrx8VzOlb1wk9mxeTIB0p7+FD8xJL+o956YPVK2I2yP44gsR7+EwDzmWN89tJTNbjMiNeQL7qjo/66yddX+cQgLpSgJwYbBuJRMQYP9tkDH7yILo1AVpBTzchi7Uvs1k4zzhdU8V2/7pjnjHQxEeZGYwXUFpB1s9957Z+9s0vr+VrCFInRXfVcbOdz+a6PhD+PcvPWCfv11/jhRYA5Y5+bXoL2/3/MwWake6r+FA2Zuc3P2sMHsQG24oA9Jxkn1l9hvldwPNN8L8Ew0gLWw4e3M/hdy9H9B8ZjwDgTwX8V+OzfyzhX+3/x5dZX3eGC1K+Xp5Tg6Trldf7hZ88+LlOzspZ+e+scZbxfOa4ngFn85v6S7iHqMvWZ1X7M6Kdv3uh9+vDDINQiDFyjbeRshTG8/qU50EG1k5JPI+qmgWgQE6bb+px5KtiKuahD3QOg5m43N7sWInB0dMn8qAoimvXKgCI56toFM0PqhKkrIqGKh5qgxMPSNl+IhKyRRWNqphJzCpI+S6I+M+wqab73R2E53Eu+zbedHRxeBGvNN7GS1n7efE23qzatw0g8wu86ciL3Xmkq2JJlmGBZF/8Z8ipPx+kJ4mlDXJXjJnaXGSuiAt54aZ70OPbrOqO93R9nUPxPG6rWdu7GH17y4QJ8JUHce0qDtKVJGTVBqpX7PPMm8RlbOknqDTk+hBIpoyGYx/tfOybH77KV+e7TurdVcfOHDur67rJid2zpmu1bCxFZXgeqeLb/pbWcnF24+dISfZrmX5NtT1rnM3/Gm8WzS/Q9OvZVef1bFb5DeQkz7c+/0swTN1clMM8COG6M1SQ8h3/nBosXQ983S9mlIdZMZ49+x88j1TR/XoGvIhXvD73WXi/F/q9Pjzz1Vdf/dn+IQDEYm47QG4quQhkJQvVUZmdmpUcLssKNHjbnmhhVXKIyAqkYsO6hhvRSfFRJ43lUbJqD66T05os2nXdzz2LTkYkEgH0dUJpvohrQ2qG508FuYgMxW1tYJNFu+7QYvJzL/Rrti2hp54x/hGQildGXgCMAcwJWRFN2iovGHTKZcpQs4BWuBxqVyGiobzWyWYJl/XlUUbddBfvuu79nkVE82nxrju0sDzeC4NiEBpEfxyDMf7RttDxCJKUhdqY/tsEonmUKRuTquRc1uQiCt/YOtmsIJcoQJOKaHi8UM/9dX2CexYRuTGvJemcNMy3Zgnpfnr6+Ngx5v66Q4stwL3QLwahE9H7lHsYfGwMYK5Wy8iM25jo1Mig3FPFmGHWe5oLY+pkHICUhXoqr+ve71lENJ8W77pDC8nHvTAojgklIiIimiMcE0pEpx1bQomIiIjmiLHMAxHRacUglIiIiIiIiELDIJSIiIiIiIhCwyB0Cp6U3sH1yKso5x7YvzoBFeQsi5nT4uMxJSIiIqLTg0HoxB7hYPshAOBIqeHA/nWomiilZSgaAPt04fr03+mJ5xF/mlSQ60+Zrv/kTiAUbALQFMgRBqJEREREtPgYhE7sPFa3ngcAnMuuYdX+dUBPSu+gHPnAV1BbySVQ0CQUG5y2+1SJZ1BuFCFBgXwSQTARERER0RQxCJ2Cs/lf41rvLnLlF+1fBfZk/yGO7B+OUslBVgCpeBtcg3xaMijrMxT2eiqy9q/DFM/jdlECFBmMQ4mIiIhokTEIPRWaKN1QAKmI24xAT614/iqyAJQbJUdvayIiIiKiRXHqg1AxadA7qDaBJ6UPUI68iuuRV3E9/QGqjif5B/g48irKpUcAHqGaExMOiUmHPsETl22N769HXsX1IRMTDfLwCAej8lD5oJ/WtgIAVWzb/obIm03lJgoaIG3J8BuCVnKDsY7W4miiUsoh3R8PmUbavo0+zjSSdg+KRNppzHQYapA8NCso5dKmfYsgnc6h4paAR81SGpFIxNlKWcmJ9B2F4KF8HTK4UpQArYCb9r9DRERERLQgTn0QaqhffhUfFqqDLq5aFZ8lRHDqsP8AH0fewmeKmHAIAI6UO/hwSJDpzUPUL7+FbUce/I37dFPZVQBI2JL9haDNUhqyAiCrolfOWALYSi4BuaBA63+iQVNkJMzBXlzGlgRA24bqKMcKdhUA2auz7R7sJQ/SFgZF00TpsoyCopn2DdA0BXIivIl/PJWvi7i8BQmAshtWTomIiIiIpuspCUIf4kgDzmXfxpu9u7jWex9bxedFYKg6WxaPlDuo43m8pL6Pa727uNZ4GykAsMx++yJe6d0V3/f078dw5CELAFXsG/FE5hd6enf179LY6v8N8ZPLn7ekCTTRqNsDrfGapTQSBQ2SHoBa6ONLkVXR6I+JbEDN2lvh4shfzQLQsG2PACu7UABkN2xpT52HPFzNW1uIU1kU1Ya+X8a+AYCCUGI7z+Xrwgi6642RwSoRERER0bx6SoJQ4FzxfeTKL+IsIGa0zW8iBeBo+4Gtmy304O/XSGf0gC/+IpLTmJUm+7Y1DxtpAMBRwxkIe/cl9jUAqYTnrrjmALRqD0D7LatZqJbW0TgyZX1MojlSy2wgC0DbVi1BUWVXjFG94kx++kblAVlY4+A48uUy8pbpg+PIbEzjAHvjq3wd4kikAGj7+NL+FRERERHRAnh6gtCEvQVxGeck20cGl6VWVst3ca33C8fnfqQ2pjd7bmDbl5EoaMCQALTfsgoFsn2NzIgMBfZWOGOcoqk7bLOEG0qwMarBZLAholBTl1yjO/AGHHvZrCCXFmM4+z+yYt9qRvyWLxERERHR6fLUBKGk27qKogRAueGcRCcgMU5x0B22qW5DQxZXZzoY1CpzpWjJg+iKK6Fob4ptlpBOyFA084hQIiIiIiIKy9MbhDYfoK4BSJ3Xu8fOoxaejG0Su4CkrzGCF5CvqshKGhTZbeZavbunVDSNV7T9VG1jLPVxiqI7bBPqtubeAjlLljwY3YGd42QrNwvQAEhF83jMHnpiUOjUVXbrtk8ClK+FMQY4iQv2r4iIiIiIFsBTFISaxl02H+Djy3dwNC9dZF2cTRoTJ7mNWTUzxgi6zQ47TAblqoosNBQSzkD0QlJMkHM5V0HTU5r65EBaATdLKrY1lxZIm0pOdIdNT6s5FnHIIgqF2hRdcUd1B04lLvS/a1ZKyN2YrDtuPCGmplJ2jdltm6jk0pAVZ4ur//I1aarY9jkGmIiIiIhonjw1QWhdfmuw3mbiPdEKmn0br4yOlYYzrel5PfIexDC/90av5+nD2UQMAHBUeA8fjlknVEyq4zI77EgZlBuiC2vBtjRJPH8bRQliyZCEfdyiy1qYGEwOpBQK0FxaIK0q2NWDM0254QiCg4rnryILDfs3d6EM6Q58ISkGAityor8/CbkAl1ixv8anZbymIvc/s6z9qe8/lAISkQgikYQIQCXnwONA5asTXZ3DmHWYiIiIiGg2npog1EJ6Hqni23izPJ+toIBYruVNNT188iSzzBUR1BRu+lvnMp5HVc2KSXLS5kA0jnxVLBni5c8L+uRAGN0CKWRQnkn3V5EHRVGGdgeO56toFLOm/ZIgZVU01KKPfXUjgvpsPxEJ2aKKRlXMeGsVpHwBGF2dw5p1mIiIiIhoBp756quv/mz/EABiMdESt+ielN7Bh4WHSKl3g7d6LoJKDhFZgVRsoOrSAhiGSi4CWclC7ZVdA0CzZiWHy7ICDd62p8HSOlm1B9eJjYmIiIiIFsDT2RJ6GmXKULOAVrg8te6t3hnjHwGpeGVkQFnJGV1gFdGtVGUA6kmzhMv60joMQImIiIhokTEIPUUyZWOyoRwqYQSi/TGTxvjHIm57bIWVpCzUBlv0PGlWkEsUoElFNFhgRERERLTgGISeKhmUe6oYl+gtFpwSfVzlyKVFhExZLENSrZaRGbcxCXEAUhaqh/IlIiIiIpp3p35MKBEREREREc0PtoQSERERERFRaBiEEhERERERUWgYhBIREREREVFoGIQSERERERFRaBiEEhERERERUWgYhBIREREREVFoGIQSERERERFRaBiEEhERERERUWgYhBIREREREVFoGIQSERERERFRaBiEEhERERERUWgYhBIREREREVFoGIQSERERERFRaBiEEhERERERUWgYhBIREREREVFoGIQSERERERFRaBiEEhERERERUWgYhBIREREREVFoGIQSERERERFRaBiEEhERERERUWgYhBIREREREVFoGIQSERERERFRaBiEEhERERERUWgYhBIREREREVFoGIQSERERERFRaBiEEhERERERUWgYhBIREREREVFoGIQSERERERFRaBiEEhERERERUWgYhBIREREREVFoGIQSERERERFRaBiEEhERERERUWgYhBIREREREVFoGIQSERERERFRaBiEEhERERERUWgYhBIREREREVFo/v8UkTNoeVhPXQAAAABJRU5ErkJggg==;" vertex="1" parent="1">
          <mxGeometry x="425" y="1180" width="929" height="388" as="geometry" />
        </mxCell>
      </root>
    </mxGraphModel>
  </diagram>
</mxfile>
